<svg version="1.1" id="Layer_1" xmlns="http://www.w3.org/2000/svg" xmlns:xlink="http://www.w3.org/1999/xlink" x="0px" y="0px" viewBox="0 0 131.8 43.3" style="enable-background:new 0 0 131.8 43.3;" xml:space="preserve">
        <style type="text/css">
          .logo_st0{fill:#231F20;}
          .logo_st1{fill:#FFFFFF;}
        </style>
        <title>Asset 1</title>
        <g>
          <g id="Layer_1-2">
            <path class="logo_st0" d="M32.8,42.8v0.4h-8.3l-8.6-16.6H7.7v16.6H0V0h15.3c5,0,8.8,1.1,11.6,3.3S31,8.8,31,13c0.1,2.6-0.6,5.1-2,7.2
              c-1.5,2.1-3.5,3.6-5.8,4.6L32.8,42.8z M7.7,20.5h7.7c2.1,0.1,4.3-0.5,5.9-1.9c1.4-1.4,2.1-3.2,2-5.1c0.1-2-0.6-3.9-2-5.3
              c-1.3-1.3-3.3-1.9-6-1.9H7.7V20.5z"></path>
            <path class="logo_st0" d="M67.2,24.4c1.2,1.8,1.9,4,1.8,6.2c0,4.1-1.3,7.2-3.9,9.4s-6.3,3.3-11.1,3.3H38.1V0h14.8c4.9,0,8.6,1,11.2,2.9
              S68,7.8,68,11.7c0,1.9-0.5,3.8-1.6,5.4s-2.8,2.9-4.6,3.6C64,21.2,65.9,22.5,67.2,24.4z M45.8,6.2v12H53c1.9,0.1,3.9-0.4,5.5-1.6
              c1.3-1.1,2-2.7,1.9-4.4c0-2.1-0.6-3.6-1.8-4.6s-3.1-1.4-5.7-1.5L45.8,6.2L45.8,6.2z M59.5,35.3c1.3-1.2,2-2.9,1.9-4.7
              c0-4.5-2.4-6.8-7.1-6.8h-8.6V37H54C56,37.1,58,36.5,59.5,35.3z"></path>
            <path class="logo_st0" d="M122.5,2.5c2.9,1.7,5.3,4.2,6.9,7.2c1.7,3.3,2.5,7.1,2.4,10.8v2.1c0.1,3.8-0.8,7.5-2.4,10.8
              c-1.6,3-4,5.5-6.9,7.2c-3.2,1.7-6.8,2.6-10.4,2.5H99.5V0h12.8C115.9-0.1,119.4,0.8,122.5,2.5z M124.1,20.5c0-4.6-1-8.2-3-10.6
              s-4.9-3.7-8.8-3.7h-5.1V37h4.8c4,0,7-1.3,9-3.8s3.1-6,3.1-10.6V20.5z"></path>
            <circle class="logo_st1" cx="84.2" cy="4.1" r="3.8"></circle>
            <circle class="logo_st1" cx="84.2" cy="21.5" r="3.8"></circle>
            <circle class="logo_st1" cx="84.2" cy="38.9" r="3.8"></circle>
          </g>
        </g>
        </svg>