<?xml version="1.0" encoding="UTF-8"?><svg id="Layer_1" xmlns="http://www.w3.org/2000/svg" viewBox="0 0 131.81 43.31"><defs><style>.cls-1{fill:#231f20;}</style></defs><g id="Layer_1-2"><path class="cls-1" d="M32.8,42.81v.4h-8.3l-8.6-16.6H7.7v16.6H0V0h15.3C20.3,0,24.1,1.11,26.9,3.31c2.8,2.2,4.1,5.5,4.1,9.7.1,2.6-.6,5.1-2,7.2-1.5,2.1-3.5,3.6-5.8,4.6l9.6,18ZM7.7,20.51h7.7c2.1.1,4.3-.5,5.9-1.9,1.4-1.4,2.1-3.2,2-5.1.1-2-.6-3.9-2-5.3-1.3-1.3-3.3-1.9-6-1.9h-7.6v14.2Z"/><path class="cls-1" d="M67.2,24.41c1.2,1.8,1.9,4,1.8,6.2,0,4.1-1.3,7.2-3.9,9.4s-6.3,3.3-11.1,3.3h-15.9V0h14.8c4.9,0,8.6,1,11.2,2.9s3.9,4.9,3.9,8.8c0,1.9-.5,3.8-1.6,5.4s-2.8,2.9-4.6,3.6c2.2.5,4.1,1.8,5.4,3.7ZM45.8,6.21v12h7.2c1.9.1,3.9-.4,5.5-1.6,1.3-1.1,2-2.7,1.9-4.4,0-2.1-.6-3.6-1.8-4.6s-3.1-1.4-5.7-1.5l-7.1.1h0ZM59.5,35.31c1.3-1.2,2-2.9,1.9-4.7,0-4.5-2.4-6.8-7.1-6.8h-8.6v13.2h8.3c2,.1,4-.5,5.5-1.7Z"/><path class="cls-1" d="M122.5,2.51c2.9,1.7,5.3,4.2,6.9,7.2,1.7,3.3,2.5,7.1,2.4,10.8v2.1c.1,3.8-.8,7.5-2.4,10.8-1.6,3-4,5.5-6.9,7.2-3.2,1.7-6.8,2.6-10.4,2.5h-12.6V0h12.8c3.6-.1,7.1.8,10.2,2.5ZM124.1,20.51c0-4.6-1-8.2-3-10.6s-4.9-3.7-8.8-3.7h-5.1v30.8h4.8c4,0,7-1.3,9-3.8s3.1-6,3.1-10.6v-2.1Z"/><circle class="cls-1" cx="84.2" cy="4.11" r="3.8"/><circle class="cls-1" cx="84.2" cy="21.51" r="3.8"/><circle class="cls-1" cx="84.2" cy="38.91" r="3.8"/></g></svg>