<?xml version="1.0" encoding="UTF-8"?><svg id="Layer_1" xmlns="http://www.w3.org/2000/svg" viewBox="0 0 128.73 94.51"><defs><style>.cls-1{fill:#231f20;}.cls-2{fill:#fff;}</style></defs><path class="cls-1" d="M43.46,75.74c-.08.14-.19.26-.33.33"/><path class="cls-1" d="M46.48,52.14c.35,0,.63-.28.63-.64s-.28-.64-.63-.64-.63.29-.63.64.28.64.63.64h0Z"/><path class="cls-1" d="M75.72,25.48h0s-22.74-.01-22.74-.01h0s0,.01,0,.01l.02,18.37c0,1.77.75,3.32,1.79,3.8l8.75,5.22c.19.22.48.36.8.36.28,0,.52-.11.71-.28l8.88-5.31c1.04-.48,1.79-2.03,1.79-3.8l.02-18.37h0ZM60.54,30.79h-1.97v-4.7h1.97v4.7h0ZM59.11,32.43l.28-.29-.18-.32.37.04.22-.39.22.38.37-.03-.17.32.28.29-.36.07v.4l-.34-.25-.34.25v-.4l-.36-.07h0ZM53.62,38.28v-4.46h2.39v4.46h-2.39ZM54.01,31.82l.37.04.22-.39.22.38.37-.03-.17.32.28.29-.36.07v.4l-.34-.25-.34.25v-.4l-.36-.07.28-.29-.17-.32h0ZM56.71,36.36l.37.04.22-.39.22.38.37-.03-.17.32.28.29-.36.07v.4l-.34-.25-.34.25v-.4l-.36-.07.28-.29-.17-.32h0ZM58.3,32.77c-.02-.12-.17-.15-.24-.15-.21,0-.3.35-.48.36-.13,0-.23.02-.23-.14,0-.12.27-.21.37-.31-1.47,0-1.5.67-1.73.67-.39,0,.32-.71.53-.92-.3-.05-.47-.42-.8-.6.15-.22.24-.13.43.03,0-.15.12-.34.46-.34.66,0,.47.64.58.64s0-.64.44-.64c.65,0,1.47,1.68.73,1.68-.32,0-.06-.24-.07-.28h0ZM56.6,27.85l.28-.29-.17-.32.37.04.22-.39.22.38.37-.03-.17.32.28.29-.36.07v.4l-.34-.25-.34.25v-.4l-.36-.07h0ZM56.01,26.09v4.7h-2.39v-4.7h2.39ZM60.54,50.36l-5.44-3.25c-.91-.62-1.36-1.71-1.48-3.03v-5.17h6.92v11.45h0ZM58.57,38.28v-4.46h1.97v4.46h-1.97ZM67.55,50.73l-2.51,1.5h-.04c-.18.14-.41.23-.66.23s-.49-.09-.67-.24l-2.5-1.49v-11.82h6.39v11.82h0ZM67.55,38.28h-6.39v-12.19h6.39v12.19h0ZM75.08,44.08c-.12,1.32-.57,2.41-1.47,3.03l-5.44,3.25v-11.45h6.92v5.17h0ZM75.08,38.28h-6.92v-12.19h6.92v12.19h0Z"/><path class="cls-1" d="M60.17,43.11c-.03-.07-.87.28-.63.25.02-.25.49-.75.69-.93-.04-.29-.41-.03-.8.18,1.29-1.86.46-1.09-.26-.96,1.16-1.25.85-1.22,0-.84.67-.53.81-1.16.71-1.35-.63.84-1.21.71-1.21,1.48,0,.51-.18,1.35-.45,1.63-.34.37-.08-1.37-.97-1.37-.28,0-.95-.02-1.16.32.18,0,.45.46.45.64s.17.69-.14.69-.66-.64-.66-.94-.02-.23-.02-.67c0-.73-1.2-1.77-1.68-1.77,0,.51.67.63.67,1.29-.28,0-.69-.53-.69-.2s.43.39.43.67-.49-.1-.49.2c0,.27.27.22.33.49-.2-.06-.37-.03-.41.07-.03.09.06.2.21.29-.07.06-.13.22-.13.65,0,1.45.91,2.12,1.58,2.12.47,0,.4-.33.46-.49.02.25.25-.12.25.31s-.46.25-.46.64c0,.52.73-.02.73.56,0,.69-.09.68-.09.95,0,.18.76-.25.71-.33.18.07.18.61.52.59.22,0,.27-.55.44-.6-.1.03.69.52.69.27,0-.68-.28-.39-.28-.85,0-.43.94-.35.79-.56-.12-.18-.21-.07-.31-.39.02.06-.73-1.07.16-.49.94.61,1.04-1.43.99-1.53h0Z"/><path class="cls-1" d="M84.43,47.92c.41,0,.75-.3.75-.66s-.33-.66-.75-.66-.75.29-.75.66.34.66.75.66h0Z"/><path class="cls-1" d="M81.41,49.72c.41,0,.75-.3.75-.66s-.33-.66-.75-.66-.75.3-.75.66.34.66.75.66h0Z"/><path class="cls-1" d="M45.46,53.86c.41,0,.75-.3.75-.66s-.33-.66-.75-.66-.75.3-.75.66.33.66.75.66h0Z"/><path class="cls-1" d="M47.79,54.06c.41,0,.75-.3.75-.66s-.33-.66-.75-.66-.75.3-.75.66.33.66.75.66h0Z"/><path class="cls-1" d="M112.5,22.69c1.11,1.32,1.35,3.44.55,4.95-.44-.04-.36-.6-.44-.92-.79-1.48-1.43-3.36-.71-5.03.52.08.32.72.6,1h0Z"/><path class="cls-1" d="M17.55,24.49c-.24.96-.24,2.28,0,3.16-.2.2-.16-.2-.36-.16-1.55-1.12-.83-3.32-1.23-4.87.08-.12.28-.16.4-.08.71.48,1.03,1.16,1.19,1.96h0Z"/><path class="cls-1" d="M115.92,24.61c.24.44-.2.88-.52,1.08-.36.08-.75-.12-.99-.44-.12-.44.12-.84.48-1.04.4-.04.79.04,1.03.4h0Z"/><path class="cls-1" d="M15.13,26.37c-.08.36-.2.72-.51.88-.24,0-.6,0-.75-.2-.24-.2-.28-.56-.16-.84.16-.28.48-.32.76-.36.28.12.55.2.67.52h0Z"/><path class="cls-1" d="M117.46,27.05c.08.24.08.4,0,.64-.28.36-.67.52-1.07.36-.28-.16-.36-.44-.44-.68.08-.32.4-.6.67-.72.36,0,.59.2.83.4h0Z"/><path class="cls-1" d="M115.2,27.09c.32.16.08.56.04.8-.2.2-.48.52-.83.4-.2-.2-.43-.2-.51-.48,0-.4.16-.8.55-.92.32-.08.52.08.75.2h0Z"/><path class="cls-1" d="M112.31,27.69c0,.44.04,1-.48,1.08-.48.16-.79-.24-.91-.56-.04-.4.2-.8.59-.96.32,0,.6.2.79.44h0Z"/><path class="cls-1" d="M19.45,27.89c.12.4-.28.64-.51.84-.28.08-.64-.16-.79-.44-.28-.28.08-.52.16-.76.4-.36.99-.08,1.15.36h0Z"/><path class="cls-1" d="M17.07,28.01c0,.32-.16.64-.43.76-.32.12-.63-.12-.79-.36-.2-.4.04-.76.36-.92.44-.16.71.24.87.52h0Z"/><path class="cls-1" d="M102.71,28.17c.4.84.71,1.84.79,2.88-.16.76.12,1.76-.44,2.28-.55-.2-.59-.88-.95-1.24-.71-1.4-.08-3.04.16-4.4.32-.12.32.28.44.48h0Z"/><path class="cls-1" d="M15.21,28.65c.12.48-.24.72-.52,1-.48.12-.79-.24-.99-.56-.04-.4.2-.8.52-.96.4-.04.79.16.99.52h0Z"/><path class="cls-1" d="M108.97,29.8c.52,1.16.55,2.56.2,3.84l-.24.2c-.56-1.08-1.35-2.08-1.63-3.24,0-.84.16-1.6.48-2.28.28-.2.44.04.55.28.04.44.24.96.63,1.2h0Z"/><path class="cls-1" d="M113.97,29.09c-.04.4-.2.84-.6.96-.4.08-.79-.04-.91-.48-.12-.4.12-.76.43-.96.44-.24.87.16,1.07.48h0Z"/><path class="cls-1" d="M17.11,30.32c0,.32-.28.68-.6.76-.32.24-.55-.16-.83-.28-.12-.32-.2-.6,0-.92.12-.24.4-.24.64-.32.36.2.71.36.79.76h0Z"/><path class="cls-1" d="M18.86,30.13c.16.4-.28.6-.44.8-.48.16-.71-.2-.91-.48-.08-.4.16-.64.44-.88.48-.12.71.2.91.56h0Z"/><path class="cls-1" d="M115.08,30c-.04.52-.83,1.04-.91,1.56-.44,1.08-1.39,1.88-2.46,2.24-.24.2-.56.48-.91.52-.08-.8.64-1.52,1.07-2.24.83-1.08,1.98-1.76,3.21-2.08h0Z"/><path class="cls-1" d="M16.32,31.68c.59.68.91,1.28,1.63,1.88.04.16-.08.4-.28.4-1.94-.12-3.25-2.12-4.2-3.52.12-.44.63-.08.91-.12.67.52,1.43.68,1.94,1.36h0Z"/><path class="cls-1" d="M115.64,32.24c-.08,1.72-.91,3.48-2.46,4.31-.44.16-.91.6-1.35.32.83-1.72,2.1-3.12,3.49-4.63h.32Z"/><path class="cls-1" d="M108.02,33.4c.12.6-.2.96-.67,1.16-.44.04-.71-.32-.91-.64-.04-.4.2-.76.56-.88.12-.12.32-.12.48-.12.24.08.36.28.56.48h0Z"/><path class="cls-1" d="M14.13,33.76c.75.52,1.43,1.24,2.14,1.88-.51.36-1.15.04-1.75.04-1.35-.48-2.26-1.64-3.65-2.04.04-.44.55-.28.83-.4.87-.08,1.59.32,2.42.52h0Z"/><path class="cls-1" d="M56.61,21.94c-2.22-.88-3.69,1.44-5.95,1.16-.28.16-.2.44-.36.64-.12.12-.32.04-.44-.04-.12-.96-.43-1.84-.55-2.76-.24-.4-.12-.96-.32-1.36-1.27-3.48,3.09-.84,3.97-2.88.75-1.76-1.47-1.96-2.14-3.2v-.52c-.64-.64-1.31-.84-1.71-1.68.28-1,.4-2.08.12-3.08-.04-.24-.2-.56-.55-.44-.75,1.04-1.31,1.88-2.02,2.88-.75-.56-1.47-1.28-2.34-1.76-.59-.08-1.15-.68-1.82-.44-.12.24,0,.44.12.6.04,1.56.83,2.8,1.94,3.92l.12.6c-.71,1.64-.52,3.51-.71,5.27-1.78,4.55-4.68,8.95-8.61,12.1-2.26,2.56-4.96,5.03-5.32,8.55-.12.56.08,1.24-.36,1.64-1.31-.48-2.62-1.12-3.69-1.96-1.82-1.28-4.44-1.12-5.63-3.44-.48-.92.12-1.84.55-2.52,1.35-1.28,1.15-3.56.44-5.11-.16-.04-.2.16-.32.2-.12,2.36-1.98,4-1.27,6.59.16.76.56,1.24.75,1.96-.28-.08-.67-.08-.91-.2-.87-.12-1.75-.48-2.66-.36-1.82.84-4.32-.2-5.79,1.48-.24.04-.55.08-.48.44.87,0,1.7.24,2.58.2,1.39.24,2.3-.92,3.25-1.44h.24c.4-.4,1.07-.16,1.59-.24,2.5.28,4.44,1.48,6.5,2.72v.16c-.79.36-1.71.6-2.5,1.04-.91.68-1.94,1.56-2.22,2.68-.63,1,.2,1.88.6,2.72.04.4.08.88.44,1.04,1.27-1.36.08-3.04.28-4.6.32-1.2,1.43-1.76,2.58-2.08,2.26-.96,3.89.88,5.71,1.92-.04,1.84.2,3.6-.2,5.39-.56.2-1.27.32-1.87.28-3.13.24-5.59,1.96-8.41,2.92-1.27.44-2.78.4-4.05.88.99.28,2.02-.08,3.05-.12,3.89-.56,6.86-3.56,11.07-3.04l.08.12c-.48,1-1.11,1.84-1.86,2.6-.12-.44-.16-.8-.56-1.04-.32-.16-.67,0-.91.32-.12.2-.12.44,0,.6.2.36.52.44.87.56-.08.36-.52.52-.75.84-1.11,1.88-3.37,1.12-4.68,2.44-.2.28-.91.44-.6.88,1.51.16,2.98-.24,4.09-1.04,1.47-1.64,3.01-3.19,4.48-4.75.24,1.28-.12,2.6-.87,3.64-.36-.2-.64-.48-1.07-.6-.4.08-.67.48-.71.8.16.28.32.6.59.8-1.35.96-3.05,1.04-4.6,1.48-2.89.36-5.71.6-8.65.64-1.39-.08-2.98.4-4.28,0-1.51.28-3.13-.2-4.36.64-.16.2.04.4.04.6,1.83,1.2,4.32.24,6.39.6h15.63c1.15-.04,2.3-.08,3.21-.6,2.02-1.16,3.13-3.24,4.17-5.27.4-.72.67-1.56.83-2.4.4-1.36,1.63-2.32,2.97-2.44.2,2.08-.2,4.15-.67,6.07-.24,1.28-1.07,2.52-.55,3.88.12.64.79.64,1.31.72,4.8-.08,9.6-.28,14.68.08.91.16,1.71.44,2.7.4.08-.12.36-.16.24-.4-.12-.44-.44-1-.95-1.12-.08-.24-.44-.16-.56-.32-2.54-1.44-5.59-.68-8.57-.64-1.55.16-3.09.44-4.4-.44-.59-.72-.16-3-.16-3,0-.9,2.18-7.19,2.46-7.71.08-.6.32-1.16.24-1.84.32-.8.24-1.84.24-2.72.16-1.28.79-2.48,1.23-3.72.24-.6.44-1.24.67-1.84.24-.76.32-1.48.79-2.08,1.29.82,2.56.8,3.18,2.26l.55,3.33c0,.2.16.6.44.36,1.03-.68.71-2.2.71-3.24.24-1.24-.63-1.84-.99-2.92-.28-.2-.73-1.15-.73-1.15-.16-.88-2.08-1.48-1.65-2.56.24-.92.48-1.76,1.35-2.28.13.09.18.18.2.28l.48-.33.05-3.34c1.29,0,3.2.16,4.51.16.36.12.64.4,1.03.44l.32-.44,3.21-.63c-1.36.15-2.19-1.42-3.49-1.42h0Z"/><path class="cls-2" d="M60.11,23.35c.1-.01.19-.03.3-.06l-.3.06h0Z"/><path class="cls-1" d="M25.56,34.48c.04.48-.24.76-.6.92-.32-.12-.55-.16-.75-.48-.16-.44.24-.76.55-.92.32.08.71.12.79.48h0Z"/><path class="cls-1" d="M22.98,34.48c.24.24.28.64.16.92-.28.24-.71.44-.95.12-.24-.24-.48-.52-.28-.84.28-.28.75-.52,1.07-.2h0Z"/><path class="cls-2" d="M78.19,34.92s.02.04.03.06"/><path class="cls-1" d="M108.42,35.6c.16.44-.2.76-.52.92-.4-.12-.91-.2-.91-.72.04-.32.32-.52.59-.6.36-.12.67.16.83.4h0Z"/><path class="cls-1" d="M110.52,35.52c.12.2.4.52.08.72-.16.12-.28.16-.4.32-.43.08-.83-.08-.95-.48-.08-.44.28-.64.59-.84.28-.08.48.12.67.28h0Z"/><path class="cls-1" d="M13.02,36c-.16.48-.55.68-1.07.52-.12-.12-.24-.32-.32-.52.04-.28.12-.56.44-.68.48.04.83.24.95.68h0Z"/><path class="cls-1" d="M26.39,36.68c-.04.32-.4.6-.67.76-.4.04-.67-.28-.87-.56,0-.32.16-.72.48-.8.44-.16.91.16,1.07.6h0Z"/><path class="cls-1" d="M24.05,36.4c.12.12.24.44.12.64-.24.2-.6.56-.99.32-.24-.2-.52-.36-.44-.76.16-.16.36-.4.6-.48.32-.08.48.12.71.28h0Z"/><path class="cls-1" d="M116.59,36.88c0,.32-.32.64-.52.76-.32.12-.67.04-.87-.2-.24-.08-.16-.4-.16-.6.2-.28.48-.44.75-.52.36.08.6.32.79.56h0Z"/><path class="cls-1" d="M119.13,37.24c-.12.36-.4.68-.75.72-.24-.04-.67-.12-.59-.48,0-.28.16-.56.36-.64.4-.2.87,0,.99.4h0Z"/><path class="cls-1" d="M17.55,37.8c.08.48-.08.8-.48.96-.28.16-.55-.04-.75-.2-.2-.2-.36-.52-.2-.8.08-.36.44-.28.67-.44.36.04.56.2.75.48h0Z"/><path class="cls-1" d="M19.49,38.15c.12.32-.24.44-.32.68-.2.12-.48.24-.71.08-.28-.24-.6-.6-.32-.96.32-.6,1.15-.28,1.35.2h0Z"/><path class="cls-1" d="M114.25,37.96c.04.4-.32.68-.55.92-.36.08-.71-.16-.79-.48-.04-.32.16-.56.44-.76.36-.04.71,0,.91.32h0Z"/><path class="cls-1" d="M117.5,38.59c-.08.36-.04.76-.44,1-.32.08-.71.04-.95-.16-.24-.2-.28-.56-.16-.84.2-.32.55-.56.95-.48.28.16.36.36.6.48h0Z"/><path class="cls-1" d="M16.04,39.43c.16.32-.2.4-.32.56-.28.16-.55.04-.79-.08-.28-.16-.16-.56-.12-.76.36-.68,1.07-.2,1.23.28h0Z"/><path class="cls-1" d="M115,40.19c.16.04.08.28.04.36-.95.48-2.38.6-3.21-.16-.48-.4-1.07-.56-1.59-.88.2-.52.91-.48,1.43-.6,1.15.16,2.06,1.24,3.33,1.28h0Z"/><path class="cls-1" d="M17.94,39.83c.08.32-.16.44-.24.68-.16.24-.48.16-.67.08-.36-.24-.52-.68-.28-1,.44-.44.95-.2,1.19.24h0Z"/><path class="cls-1" d="M21.43,40.07c.16.36-.08.68-.4.88-.28.16-.52-.08-.75-.12-.2-.28-.56-.6-.2-.92.36-.6,1.07-.28,1.35.16h0Z"/><path class="cls-1" d="M67.29,41.76c-.08.8-1.4-.11-1.21.95.19.76.34,1.67.79,2.24.38.53.19,1.37.15,2.01-.34.57-.9.99-1.51,1.29-1.13-.11-2.79.57-3.32-.84-.23-.61-.64-1.21-.64-1.9.11-.08.27-.08.38-.19,0-.27-.3-.42-.26-.68,1.28-.23-.53-1.37.57-1.44.9.95,2.37.65,3.17,1.67.19.15.34.38.57.49-.15-.95-.6-1.9-.75-2.92-.11-.53.08-1.02.45-1.33.68-.53,1.24.23,1.62.64h0Z"/><path class="cls-1" d="M24.92,41.51c.12.4-.2.64-.44.84-.36.16-.55-.24-.71-.44-.12-.4.16-.6.4-.8.28,0,.59.12.75.4h0Z"/><path class="cls-1" d="M49.4,41.91c.47,1.56.32,3.16-.48,4.47-.04.32.08.84-.36.8-1.07-1.48-.28-3.56.16-5.11.08-.4.56-.56.67-.16h0Z"/><path class="cls-1" d="M83.35,42.67c.55,1.12.59,2.6.08,3.72l-.32.32c-.44-.92-.79-1.84-.91-2.84.2-.72.44-1.36.48-2.12.56-.12.52.6.67.92h0Z"/><path class="cls-1" d="M28.02,43.11c-.24.48-.91.6-1.35.92-.95.72-2.34.88-3.53.68,1.03-1.44,2.62-2.28,4.52-1.88.08.16.28.08.36.28h0Z"/><path class="cls-1" d="M11.72,44.55c1.47,1.04,1.86,2.48,2.74,3.91.12.16.52.2.36.52-.32.24-.63-.24-1.07-.16-1.51-.68-2.46-2.36-2.42-4.11,0-.16.24-.16.4-.16h0Z"/><path class="cls-1" d="M81.8,45.79c.04.4-.04.8-.36.92-.44.12-.79-.12-.91-.48-.12-.28.12-.44.2-.64.32-.32.87-.16,1.07.2h0Z"/><path class="cls-1" d="M98.54,47.9c0-.76.2-1.48.28-2.2.12-.24.2-.52.16-.84.95-1.28,2.9-.88,4.4-.76.6.32,1.35.28,1.98.44.28-.2.67-.24.99-.2,1.27-.68.44-2.16.52-3.32l-.48-1.2c-.12-.24-.24-.52-.32-.8-.24-.28-.4-.8-.63-1.08-.67-1.76-1.98-2.76-3.09-4.15-2.02-2.64-5.2-4.12-8.37-5.15-3.13-1.08-6.31.32-9.12,1.32-.87-.24-1.31-.92-1.55-1.68-.16-1.52.16-3,.75-4.23.12-1,.79-1.76,1.07-2.68.71-2.24,1.47-4.43,1.63-6.87.08-1.48-1.03-2.52-2.14-3.16-.75-.2-1.63-.16-2.18.44-.51,1.08-1.63,1.8-2.58,2.32-.08.68.75.24,1.03.48.87.16,1.87-.12,2.58.44.08,1.6-.83,2.92-1.67,4.11-1.35,2-2.78,4.03-3.61,6.23l-.16-.16.19,9.77c1.26,2.1,2.84,4.5,5.2,5.3,1.27,1.04,2.86,2.28,4.56,1.36.91-.28.99,1,1.43,1.52.48,1.48-.59,2.52-.67,3.87l-1.03,2.2c-1.19,2.32-2.26,4.79-4.09,6.75-.6,0-.95.64-1.55.68-.32.44-.95.12-1.35.28-1.23.52-2.97.2-3.81,1.36.08.12.2.16.32.2,2.42.04,5.12.2,7.69.08.32-.12.6-.4.63-.76-.36-.68.12-1.28.44-1.8.2-.96.83-1.56,1.11-2.48.83-1.64,1.78-3.24,2.7-4.87l1.23-2c.28-.68.75-1.52,1.23-2.24.32-.32.48-.68.71-1.08.04-.4-.16-.56-.4-.84.28-.28.71-.2,1.07-.28.99.6,2.02,1.56,2.22,2.64l.36,1.04.16.48-.08,1.32.16,1.24c.2,1.92-.16,3.88-.36,5.79-.67,2.32-3.33,2.08-5.24,2.6-.47.32-1.39.16-1.39.96,2.3.48,5,.2,7.46.16.4-.16.48-.52.67-.88.08-.52.59-.96.43-1.52-.43-.56-.04-1.44-.16-2.2.08-.2.08-.48,0-.76.32-1.16.24-2.56.48-3.68l.16-1.52h0Z"/><path class="cls-1" d="M118.06,46.34c-1.27,1.8-2.62,3.83-4.84,4.47-.16,0-.32.08-.4-.12,1.35-1.44,2.06-3.68,4.17-4.2.32-.16.75-.32,1.07-.16h0Z"/><path class="cls-1" d="M9.77,48.3c-.2.16-.04.52-.4.56-.32.16-.67-.04-.83-.36-.16-.4.2-.8.51-.88.32.16.63.28.71.68h0Z"/><path class="cls-1" d="M21.2,48.86c.12.36-.28.36-.48.44-1.67.6-3.37.04-4.56-1.16,0-.16,0-.32.16-.36,1.63.4,3.53.08,4.88,1.08h0Z"/><path class="cls-1" d="M11.95,48.34c.08.16.12.44.08.6-.24.36-.6.44-.99.36-.24-.12-.36-.28-.52-.52.04-.4.36-.64.67-.76.32.04.56.12.75.32h0Z"/><path class="cls-1" d="M49.12,48.54c.08.36-.24.6-.48.76-.36.08-.67-.08-.83-.32-.12-.28,0-.68.28-.76.36-.08.91-.04,1.03.32h0Z"/><path class="cls-1" d="M119.56,48.7c.12.4-.24.6-.51.84-.24.12-.52,0-.75-.12-.04-.2-.28-.36-.2-.64.16-.36.51-.52.91-.48.2.16.36.2.55.4h0Z"/><path class="cls-1" d="M122.18,48.54c.24.36.04.64-.16.92-.16.28-.48.36-.71.24-.24-.24-.56-.36-.59-.72,0-.32.36-.56.59-.68.4-.16.56.24.87.24h0Z"/><path class="cls-1" d="M8.1,49.7c.04.28-.2.44-.28.68-.2.08-.4.24-.64.16-.28-.12-.48-.36-.59-.64.08-.36.32-.68.71-.8.32.08.67.24.79.6h0Z"/><path class="cls-1" d="M91.64,49.7c.08.16.04.36.04.52-.24.32-.55.6-.95.4-.24-.24-.52-.48-.4-.84.32-.44.99-.6,1.31-.08h0Z"/><path class="cls-1" d="M14.49,50.3c-.08.28-.2.56-.55.6-.36.04-.48-.28-.67-.44,0-.36-.04-.72.32-.92.48-.16.91.24.91.76h0Z"/><path class="cls-1" d="M10.68,50.38c.12.4-.16.68-.4.88-.48.16-.87-.2-1.07-.56.04-.36.32-.8.71-.92.36,0,.55.4.75.6h0Z"/><path class="cls-1" d="M94.26,50.3c.08.4-.04.8-.44.96-.48.16-.87-.24-1.07-.56.2-.32.24-.76.71-.84.36,0,.6.16.79.44h0Z"/><path class="cls-1" d="M12.55,50.46c.12.28-.12.4-.2.6-.2,0-.32.24-.55.16-.16-.2-.48-.28-.52-.56-.04-.4.24-.6.52-.76.4-.04.64.24.75.56h0Z"/><path class="cls-1" d="M117.38,50.78c-.12.32-.36.48-.67.64-.32.08-.52-.2-.75-.32-.2-.16-.12-.52-.04-.72.4-.68,1.47-.36,1.47.4h0Z"/><path class="cls-1" d="M120.4,50.94c-.12.44-.55.64-.95.68-.36-.16-.75-.44-.48-.92.16-.16.24-.32.48-.36.48-.16.83.2.95.6h0Z"/><path class="cls-1" d="M101.55,51.22c.2.52-.28.68-.59.92-.28-.04-.52-.16-.75-.32-.08-.44.12-.84.56-1.04.36,0,.55.16.79.44h0Z"/><path class="cls-1" d="M90.65,51.7c.2.08.12.36.08.48-.24.16-.55.56-.91.32-.28-.16-.48-.4-.4-.76.2-.44,1.03-.48,1.23-.04h0Z"/><path class="cls-1" d="M92.87,51.98c.04.32-.04.48-.32.64-.28.28-.6-.04-.87-.12-.08-.16-.16-.4-.04-.6.12-.16.32-.28.52-.32.28.08.6.08.71.4h0Z"/><path class="cls-1" d="M25.56,52.02c.24.24-.04.52-.08.76-.2.24-.63.44-.99.2-.4-.16-.36-.68-.28-1,.24-.08.24-.36.55-.36.36.04.55.2.79.4h0Z"/><path class="cls-1" d="M105.8,52.18c.08.4-.32.56-.59.64-.48.16-.71-.2-.91-.52,0-.24.24-.4.32-.6.56-.24.91.16,1.19.48h0Z"/><path class="cls-1" d="M103.66,52.18c.16.4-.28.6-.44.8-.28.12-.63.08-.87-.16-.2-.12-.2-.36-.2-.6.24-.2.36-.44.64-.52.36,0,.71.2.87.48h0Z"/><path class="cls-1" d="M121.55,52.66c.08.56-.63.28-.91.44-1.67,1-3.81.24-5.4-.36.12-.52.71-.32,1.03-.52,1.71-1.08,3.45.24,5.15.32l.12.12h0Z"/><path class="cls-1" d="M12.98,52.18l-.16.28c-1.47.88-3.37,1.48-5.12.92l-.16-.24c1.47-1.08,3.41-1.36,5.32-1.08l.12.12h0Z"/><path class="cls-1" d="M109.85,52.46c0,.32-.16.6-.4.76-.4.12-.91,0-1.03-.44-.12-.32.2-.64.52-.76.28,0,.75.04.91.44h0Z"/><path class="cls-1" d="M20.08,52.62c-.16.32-.08.64-.48.8-.4.16-.87-.2-.99-.52-.12-.44.2-.56.4-.76.48-.24.83.12,1.07.48h0Z"/><path class="cls-1" d="M17.27,52.82c.12.28-.12.44-.2.64-.2.24-.55.2-.79.12-.28-.24-.55-.52-.44-.96.24-.2.36-.32.63-.44.36.08.71.24.79.64h0Z"/><path class="cls-1" d="M112.62,53.73c-.04.36-.32.64-.63.72-.32.04-.6-.2-.75-.4-.12-.24-.08-.56.16-.76.08-.12.36-.12.52-.2.36.04.64.32.71.64h0Z"/><path class="cls-1" d="M14.33,53.3c.12.32-.16.44-.2.68-.12.68-.55,1.12-.87,1.72-.75.92-1.83.92-2.9,1.2l-.16-.32c1.15-1.48,2.38-2.64,4.01-3.36l.12.08h0Z"/><path class="cls-1" d="M110.64,54.17c.08.48-.32.56-.59.76-.36,0-.63-.2-.79-.48-.12-.44.28-.6.52-.8.4-.08.75.2.87.52h0Z"/><path class="cls-1" d="M18.89,54.17c-.04.08.04.16.12.2-.04.44-.36.56-.6.76-.36,0-.63-.12-.87-.4-.16-.36,0-.8.4-.92.36-.04.83,0,.95.36h0Z"/><path class="cls-1" d="M117.94,55.37c.4-.04.47-.52.91-.6.4-.08.75.16.95.44.16.48-.2.72-.52.92-.28.2-.87-.24-.83.28.28.2.52.48.56.8-.08.16-.36.12-.48.04-1.15-.48-2.38-1.28-2.86-2.48-.16-.36-.91-.64-.48-.96,1.15-.08,2.1.84,2.74,1.56h0Z"/><path class="cls-1" d="M121.75,54.13c.2.2.12.56-.04.76-.2.4-.79.24-1.15.2-.2-.2-.4-.4-.32-.72.16-.24.32-.4.6-.52.36-.08.63.08.91.28h0Z"/><path class="cls-1" d="M107.35,56.29c.36.44.71,1.12.87,1.6-.08.12-.28.08-.36.08-1.35-.76-3.09-1.6-3.61-3.2-.12-.16-.44-.36-.4-.64,1.03-.2,2.02.56,2.74,1.12.28.4.59.6.75,1.04h0Z"/><path class="cls-1" d="M16.67,54.77c.16.36-.16.64-.36.8-.44.08-.67-.08-.91-.32-.28-.44.24-.8.56-.96.32-.04.51.28.71.48h0Z"/><path class="cls-1" d="M112.31,55.69c.04.24-.28.4-.4.56-.32.04-.63.16-.91-.12-.08-.2-.28-.52-.04-.72.44-.56,1.07-.12,1.35.28h0Z"/><path class="cls-1" d="M122.18,56.25c.12.48-.24.8-.56,1-.4.12-.71-.16-.95-.36-.2-.24-.04-.48,0-.76.28-.24.63-.44,1.03-.28.16.12.32.2.48.4h0Z"/><path class="cls-1" d="M94.73,61.77c0,.48-.87.36-1.23.72-1.23.64-2.7.64-4.16.6v-.24c1.43-1.2,3.49-1.64,5.4-1.08h0Z"/><path class="cls-1" d="M36.86,63.48c-.04.36-.24.56-.6.68-.28,0-.55-.16-.67-.4-.16-.48.24-.68.52-.88.36.04.67.32.75.6h0Z"/><path class="cls-1" d="M94.06,63.92c-.08.36-.2.76-.6.92-.36.08-.6-.12-.87-.28-.2-.16-.08-.44-.12-.64.28-.72,1.31-.72,1.59,0h0Z"/><path class="cls-1" d="M101.95,64.08c-.99.64-2.1,1.4-3.41,1.4l-2.14-.04-.2-.16c1.31-1.6,3.69-1.6,5.75-1.44v.24h0Z"/><path class="cls-1" d="M25.99,65.04c0,.36-.16.64-.52.76-.4.08-.67-.08-.83-.36-.16-.36,0-.72.32-.92.44-.28.87.2,1.03.52h0Z"/><path class="cls-1" d="M27.98,65.44c.12.2-.08.32-.16.52-.24.12-.55.2-.75,0-.28-.16-.36-.44-.24-.68.12-.24.36-.2.48-.36.28.12.55.24.67.52h0Z"/><path class="cls-1" d="M12.79,69.48c-.4.48-1.03-.12-1.47-.36-1.39-.8-1.35-2.36-2.74-3.28.16-.48.51.04.79-.04.24.16.56.32.83.44,1.35.76,1.67,2.04,2.58,3.24h0Z"/><path class="cls-1" d="M128.41,53.98c-.63-1.16-1.71-1.64-2.98-1.64-1.03.08-1.78.76-2.22,1.64-.24.88.08,1.68.75,2.2.28.12.63.08.79-.2.2-.52-.36-.52-.44-.92-.16-.56.04-1.04.44-1.4.4-.4,1.07-.2,1.55-.2.48.32.95.6,1.19,1.16.24.68.24,1.44,0,2.12-.44,1-1.43,1.8-2.46,2-3.29.48-39.43.32-39.43.32-4.24.4-9.08-.8-12.73,1.44-1.67.8-2.5,2.64-2.94,4.27-1.07.96-2.22,2.08-3.09,3.16l-.12-.12c.2-.96.63-1.8.83-2.76.6-.8.6-1.88,1.03-2.76,1.51-2.44,2.94-4.91,5.28-6.63.99-1.32,2.74-1.08,4.24-1.08,1.62.76,3.53,1,5.51.8.08-.08.12-.16.12-.28-.55-.52-1.47-.72-2.1-1.24-1.59-.76-3.1.24-4.76.12-.08-.08-.16-.12-.12-.24,1.51-1.12,3.21-1.92,4.92-2.64,1.39-.76,2.86-1.16,4.32-1.72.59,0,1.15-.52,1.71-.16l2.1-.56c.08.04.16.16.32.12,1.78-.6,4.05-.04,6.07-.08l.28.24,1.9.48c.71.08,1.03.92,1.78.96.4-.56-.44-.8-.63-1.16.87-.2,1.86.04,2.66.4l-.4.44c-.24.44.12.76.48.92.28.08.48-.12.67-.2.52-.36-.04-.72.12-1.04,2.94.52,5.75,1.24,8.45,2.4.75.24,1.47.8,2.3.76-.83-.76-1.98-1.16-3.02-1.6-.67-.4-1.63-.44-2.14-1,.12-.2.4-.12.51-.28,1.35-.16,2.5-1.16,3.45-2.24.08-.24.52-.16.48-.48-.36-.4-.95.12-1.43.08-1.67.32-2.38,2.28-4.05,2.64-2.02-.48-4.08-.96-6.11-1.48-.99-.16-2.06-.24-2.97-.64l-2.22-.2h-4.05c-.04-.08-.16-.12-.12-.24,1.43-.36,2.66-1.2,4.09-1.56l10.63-4.87c1.11-1,2.1-2.12,3.01-3.28.04-.32-.16-.64-.44-.76-.28-.12-.6-.08-.79.16-.48.36,0,.8,0,1.24-.48.64-1.23,1.2-1.82,1.56-.16-.04-10.95,4.91-10.95,4.91-1.59.68-3.17,1.44-4.84,1.8l-2.3.36c-.16.48-.55.76-.99.92-.63.12-1.15.52-1.82.52-5.16,2-10.51,4.12-14.6,8.19.24-.48.36-1.08.4-1.68-.08-.6-.04-1.28-.44-1.76-.09-.22-.38-.86-.29-1.09l-.58.38c-.36.88-.67,2.48-.32,3.4.12.72.71,1.56.16,2.2-1.9,2.32-2.97,5.11-4.24,7.75-.48-.08-.71-.52-.91-.96,1.35-1.72,2.42-3.64,2.82-5.83.28-.2.08-.72.36-.96-.08-.64.36-1.28.04-1.8.25-.87-1.16-1.68-.26-2.24l-.75.36c-1.71,2.24.89,5.59-1.06,7.75v.16c-.56.72-.83,1.44-1.59,1.92-.95-.4-1.31-1.48-1.86-2.28-.87-.84-.87-2.56-.36-3.72.36-1.16-.24-2.16-.36-3.2l-.4-.24c-.95,1.24-1.31,3.2-.55,4.67.4.72.44,1.72,1.03,2.32.36,1.16,1.07,1.92,1.71,2.96.16.4-.24.48-.44.68-.44-.28-.36-.92-.75-1.2-1.31-2.8-3.01-5.03-5.08-7.31-.08-.36-.44-.68-.24-1.08.75-.72.91-2.12.52-3.04-.08-.2-.32-.44-.28-.64l-.6-.48c.08,1.4-.83,2.64-.44,4.11v.08c-4.09-3.08-8.6-5.82-13.2-7.98l-.37,1.01c1.16.29,4.25,2.17,4.25,2.17,1.39.52,2.66,1.36,3.97,2.12,5.39,3,8.97,7.95,11.38,13.46.04.44.44.92.16,1.36-.83-1.28-2.02-2-3.01-3.04-.28-1.88-1.39-3.67-3.01-4.43-.6-.88-1.86-.96-2.86-1.24l-14.44-.08c-11.74-.16-22.45.36-34.11.16-1.63-.16-3.61-.72-4.09-2.44-.32-.6-.32-1.64,0-2.2.44-.76,1.23-1,2.02-1.08.63.08,1.07.68,1.35,1.12,0,.52-.44,1-.64,1.44.04.16.2.48.48.36.52-.2.91-.76,1.03-1.28.04-.28.16-.68-.12-.88-.24-.84-1.11-1.44-1.86-1.64-.99-.08-2.02.2-2.7.92-.95.8-.91,2.24-.63,3.36.63,1.76,2.5,2.96,4.28,3.2l38.59.16c3.77.2,8.01-.44,11.82.32,1.39.44,2.86,1.48,3.21,3.04-.04.08-.16.04-.28.04-3.13-2.04-7.26-2.8-11.26-2.32-1.59-.08-3.01.52-4.44.92-.75.16-1.47-.2-1.94-.64-1.43-1.28-3.93-1.2-5.75-.72,0,.12-.04.24.04.28,1.94-.16,3.09,1.52,4.84,1.72.4.08.71-.36,1.07-.04-1.82.88-3.57,1.92-5.51,2.48-.6-.12-.91-.68-1.39-1-.75-.84-2.14-.48-3.17-.56-.36.08-.67-.16-.91,0,.32.64,1.03,1,1.71,1.32.99.44,2.14-.04,3.05.56-.24.28-.56.36-.83.56-1.86.72-3.41,2.4-5.47,2.28-2.18.24-4.4-.4-5.87-1.92-.63-1.56-2.26-2.4-4.01-2.32-.12.08-.28.08-.24.28.87.52,1.55,1.56,2.42,2.16.56.68,1.63,0,2.14.76.76.52,1.71.96,2.58,1.12.63.28,1.35.4,2.06.56l-.28.16c-3.61,1.2-7.77,1.32-11.82,1.16-1.19-.04-2.34-.4-3.53-.36.2.24.6.44.95.56-.32.2-.67.28-1.07.32-.48.12-1.03.16-1.51.4-.63-.04-1.19.2-1.7.4-.67.72-1.47,1.48-2.26,1.84,0,.16-.04.4.16.4.75-.32,1.7-.08,2.46-.4,1.31-.12,2.06-1.56,3.09-2.16,1.11-.88,2.7-.68,4.05-.48.79.2-.08.52.16,1.04.32.28.59.6,1.03.48.08-.08.16-.16.28-.2.24-.32.2-.68.04-1,.56-.36,1.31.04,1.9-.2,1.51-.04,3.01-.36,4.48-.4.24-.04.52-.28.75-.04-.12.32-.52.36-.36.8.08.36.48.52.79.6.4-.16.75-.44.6-.96-.08-.28-.4-.32-.6-.44.83-.4,1.78-.52,2.62-.92.6-.12,1.15-.32,1.67-.56.52-.04.95-.52,1.43-.32-.2.68-.48,1.32-.83,1.92-.63,2.12-1.11,4.91,0,6.95.12.04.16-.04.24-.08-.83-2.12-.36-4.55.36-6.55.55-3.4,4.05-4.39,6.54-5.67l.12.16c-.67,1.76-1.66,3.44-1.51,5.55.08.36-.16.72,0,.96.67-.36,1.11-1.16,1.47-1.84.28-1.8-.75-4.03,1.07-5.35,3.25-1.28,6.31-2.96,10.07-3,.12.12.4-.08.43.16-.79.88-1.94,1.72-2.3,2.8-1.27,1.76-1.23,4.75-.67,6.91.36,1.24-.71,1.92-1.23,2.88-.25.34-.32.92-.55,1.31l.78.09c.67-.72,1.31-1.6,1.35-2.64.08.4.43.72.75.8.28-.44-.24-.76-.28-1.2.64-.36.91.44,1.43.6.83.2,1.55.56,2.42.56l.28-.28c-.87-1.36-2.62-1.6-4.12-1.68-.79-1.32-.79-2.96-.71-4.55.16-.84.32-1.72.79-2.48.2-.56.75-1.08,1.11-1.52.71-.68,1.63-1.16,2.5-1.36h.12c0,.08.04.12.04.12-1.07.84-1.19,2-1.82,3.04-.67,1-.99,2.36-.36,3.48.24.52.12,1.32.67,1.68.51-.72.56-1.64.83-2.44-.12-1.32-.91-2.56-.16-3.83.4-1,1.23-1.4,2.14-1.76,2.18-.2,4.09.92,5.99,1.76.4.28,1.07.52,1.15,1.08-.04,1.08-.63,2.16-1.47,2.68-1.07.64-2.62.72-3.61-.04-.59-.6-.83-1.64-.63-2.44.44-.48,1.03-.88,1.74-.64.4.2.75.6,1.27.36.2-.12.28-.44.16-.64-.44-.24-.6-.84-1.19-.92-.75-.12-1.67-.08-2.18.44-.83.72-1.15,1.8-.91,2.8.28,1.28,1.23,2.2,2.46,2.56,1.83.44,3.73-.12,4.88-1.68.48-.52.59-1.08.87-1.72,1.9,1.16,3.33,3.2,4.08,5.27,0,.68.2,1.4.04,2l1.39.12c-.12-.32,0-.68.12-.96.52-2.64,2.14-4.83,4.09-6.55.68-.4.52.52.68.8.59,1.52,1.98,2.6,3.45,3.04,1.67.28,3.25-.12,4.28-1.4.52-.96,1.15-2.36.28-3.36-.55-.68-1.31-1.04-2.18-1.04-1.03,0-1.67.72-2.18,1.48,0,.32-.04.68.24.84.16,0,.48.04.59-.2.08-.6.6-.88,1.07-1.2.44-.24.91,0,1.27.24.44.36.52.96.55,1.56-.08.76-.59,1.56-1.31,1.88-1.15.6-2.82.32-3.81-.36-.48-.52-.75-1.12-1.11-1.76-.08-.64-.32-1.2,0-1.84,1.75-1.04,3.57-1.8,5.67-2,.83.16,1.55.72,2.1,1.32,1.82,1.88-.4,4.55.87,6.63.48-.08.48-.72.67-1.12.6-1.44-.16-3-.51-4.39-.48-.88-.75-1.64-1.51-2.36.2-.08.28-.08.48-.08.83.56,1.75,1.2,2.42,2.08,1.15,1.88,1.75,4.11,1.55,6.55-.32,1.2-1.59,1.76-2.58,2.2-.4.32-.87.8-1.07,1.28.48.28,1.15,0,1.63-.2.75-.28,1.19-1.24,1.71-1.68.08.04.04.16.08.24.04.44-.2,1.04.2,1.16.2-.56.24-1.36.36-2.04.52.56.59,1.28.75,2,.36.72.95,1.68,1.9,1.8.24-.36-.04-.72-.12-1.04-.12-1-.95-1.52-1.51-2.24-1.39-1.92-.75-4.91-1.82-7.07-.4-1.16-1.23-2-2.14-2.96l.16-.16c1.94-.04,3.57.6,5.35.96,2.18,1.08,5.36.84,6.39,3.68.44,1.6,1.15,3.08,2.26,4.31l.12-.08c.24-.4.24-1.08,0-1.48-.24-2-1.98-2.48-2.9-4.15l.12-.16c.95.28,1.94.52,2.89.92,3.17.88,5.39,4,5.79,7.23,0,2.56-.48,4.67-1.47,6.83-.12.32-.67.68-.32.96.44-.32.52-.84.75-1.2,1.31-2.2,1.98-5.23,1.31-8.03-.04-.52-.63-.92-.36-1.44.2.24.44.28.67.36.24-.16.6-.16.75-.44.04-.24.2-.52,0-.72-.24-.36-.75-.36-1.15-.28-.2.24-.44.56-.48.88-.4-.68-.79-1.56-1.43-2.12l.08-.12c1.79.6,3.41,1.48,5.24,1.96.4.24.83.44,1.39.44,1.55.6,3.25.84,4.88,1.24,1.19-.12,2.18.44,3.37.16v-.08l-.04.04c-.44-.56-1.39-.04-1.9-.44-2.74-.28-5.35-1-7.81-1.96.04-.12.2-.08.32-.08.4-.2.67-.56.63-1-.2-.28-.52-.44-.91-.44-.24.12-.55.4-.59.68.04.32.32.68.59.76-.08.08-.24.04-.36.04-1.23-.56-2.42-1.08-3.61-1.64-.44-.08-.79-.44-1.23-.52-.91-.44-1.82-.88-2.74-1.24-2.54-1.32-5.35-2.04-8.05-3-.6-.16-1.15-.32-1.71-.48-.99-.28-1.98-.52-2.97-.8-3.37-.84-7.89-.92-10.83.92-.47-.16-.75.6-.99.12.83-2.2,3.25-2.92,5.43-3,15.91-.16,30.82-.28,46.49-.52,1.83,0,3.61-.64,4.56-2.28.67-.96.79-2.6.28-3.68h0ZM65.34,68.72c-.16.48-.48.88-.44,1.4l-.16.08c.12-.6-.48-.96-.32-1.6-.32-.48-.32-1.08-.6-1.6-.36-.64.32-.92.6-1.36.55.24.75.76,1.15,1.24.24.68-.28,1.2-.24,1.84h0Z"/><path class="cls-1" d="M108.38,66.2c0,.12.24.16.16.36-1.39,1.24-3.33,1.6-5.31,1.68-.16.04-.32.16-.51.12-.12-.08-.16-.2-.08-.28,1.43-1.56,3.61-2.36,5.75-1.88h0Z"/><path class="cls-1" d="M101.99,66.84c.16.56-.2.88-.63,1.08-.44-.04-.67-.32-.87-.64-.12-.32.16-.48.28-.68.32-.32,1.07-.32,1.23.24h0Z"/><path class="cls-1" d="M26.59,66.92c.08.28.04.64-.2.84-.16.2-.52.24-.72.2-.28-.04-.44-.36-.51-.6,0-.36.2-.56.51-.76.32,0,.67-.04.91.32h0Z"/><path class="cls-1" d="M19.49,69.52v.28c-.95.2-1.86-.04-2.58-.6-.55-.8-1.19-1.6-2.1-2,0-.12-.24-.28,0-.36,1.98,0,3.17,1.6,4.68,2.68h0Z"/><path class="cls-1" d="M114.41,66.88c-.91,1.36-1.71,3.04-3.33,3.64-.28,0-.52.4-.76.12.64-1.52,1.98-3.16,3.53-3.8.16,0,.39-.04.55.04h0Z"/><path class="cls-1" d="M28.89,67.36c.04.44-.28.52-.56.76-.32.04-.48-.2-.67-.44-.16-.4.2-.56.4-.76.32-.08.67.16.83.44h0Z"/><path class="cls-1" d="M119.4,67.6c-.36.52-.2,1.28-.55,1.84-.79.92-1.47,1.96-2.74,2.16-.2-.4.28-.8.48-1.16.56-1.2,1.35-2.56,2.62-3.08l.2.24h0Z"/><path class="cls-1" d="M7.19,67.96c.12.28.24.56,0,.88-.24.2-.59.28-.91.16-.36-.2-.48-.64-.32-.96.24-.36.95-.56,1.23-.08h0Z"/><path class="cls-1" d="M4.93,68.44c.04.2.16.36.12.56-.12.2-.32.44-.55.48-.44.08-.71-.16-.91-.52-.04-.36.08-.68.39-.84.36-.16.76.04.95.32h0Z"/><path class="cls-1" d="M9.61,68.68c.08.32.16.88-.32.96-.56.24-.87-.16-1.19-.48,0-.36.2-.64.48-.8.4-.04.75,0,1.03.32h0Z"/><path class="cls-1" d="M16.12,69.2c-.04.28.04.68-.28.76-.2.2-.56.12-.75.08-.08-.24-.52-.44-.28-.72.16-.2.32-.32.55-.44.24.12.6,0,.75.32h0Z"/><path class="cls-1" d="M123.21,69.48c-.12.28-.28.64-.6.64-.36-.04-.71-.08-.91-.44-.16-.44.2-.68.52-.8.4,0,.91.16.99.6h0Z"/><path class="cls-1" d="M115.95,69.67c.04.32-.32.56-.48.68-.55.24-1.03-.16-1.23-.6.08-.36.36-.6.68-.72.51-.04.79.24,1.03.64h0Z"/><path class="cls-1" d="M120.87,69.6c0,.28-.16.56-.36.68-.32.12-.71.08-.95-.16-.36-.32-.08-.6.16-.84.36-.2,1.03-.16,1.15.32h0Z"/><path class="cls-1" d="M6.16,70.27c.08.44-.08.84-.48,1-.36,0-.75-.2-.87-.56-.04-.36.08-.72.4-.84.39-.12.71.12.95.4h0Z"/><path class="cls-1" d="M113.97,70.71c.12.44-.12.84-.56,1.04-.32.08-.52-.08-.75-.28-.16-.2-.36-.64-.04-.84.32-.6,1.11-.36,1.35.08h0Z"/><path class="cls-1" d="M27.5,71.15c.16.44-.32.52-.43.76-.16.08-.48.12-.6-.04-.2-.24-.44-.48-.32-.84.2-.16.28-.32.52-.4.44-.12.6.28.83.52h0Z"/><path class="cls-1" d="M122.5,71.43c.08.28-.16.4-.2.6-.24.2-.63.24-.91.16-.36-.2-.36-.52-.36-.88.24-.16.28-.36.55-.44.36,0,.79.16.91.56h0Z"/><path class="cls-1" d="M120.04,71.55c.16.48-.28.72-.6.84-.16.04-.4-.08-.44.16,1.03.52,1.67,1.36,2.46,2.12v.32c-1.43-.04-2.9-.4-3.93-1.52-.28-.2-.75-.2-1.07-.48.52-.52,1.47-.32,2.18-.36.52-.56-.6-.96.08-1.44.24-.04.4-.28.71-.2.28.12.44.32.6.56h0Z"/><path class="cls-1" d="M103.82,71.59c.08.2-.16.44-.2.64-.24.24-.6.28-.87.16-.2-.28-.52-.52-.4-.92.32-.6,1.35-.48,1.47.12h0Z"/><path class="cls-1" d="M15.13,72.99c-.12.36-.28.6-.67.64-.32-.04-.6-.16-.72-.48-.04-.28.16-.44.2-.64.44-.36,1.23-.12,1.19.48h0Z"/><path class="cls-1" d="M18.34,72.47c0,.56-.6.88-.79,1.44-.6,1.32-1.67,2.52-3.17,2.64-.16-.36.52-.8.67-1.16.63-1.36,1.9-2.08,3.05-2.92h.24Z"/><path class="cls-1" d="M102.87,73.03c.04.44-.36.76-.67.92-.36.12-.64-.16-.83-.32-.32-.32-.12-.64.04-.96.48-.48,1.15-.08,1.47.36h0Z"/><path class="cls-1" d="M105.32,73.31c-.04.44-.32.76-.71.88-.08-.12-.28-.04-.4-.08-.28-.16-.52-.4-.52-.72.2-.2.28-.52.56-.56.36-.04.95,0,1.07.48h0Z"/><path class="cls-1" d="M24.49,73.27c.04.44-.28.68-.59.84-.36.04-.6-.2-.75-.48-.08-.36.28-.6.48-.8.48-.16.6.2.87.44h0Z"/><path class="cls-1" d="M27.23,73.43c-.12.36-.36.6-.75.68-.28-.08-.59-.16-.71-.48-.04-.4.28-.6.55-.8.4,0,.83.16.91.6h0Z"/><path class="cls-1" d="M113.85,76.23c.2.16.55.36.48.64-.63.28-1.15-.44-1.74-.56-.95-.96-1.67-2-2.06-3.2.36-.36.75.08,1.07.2.91.76,1.78,1.76,2.26,2.92h0Z"/><path class="cls-1" d="M115.32,73.43c.12.28.08.6-.08.88-.24.4-.75.32-1.11.24-.2-.24-.56-.56-.32-.92.12-.32.48-.4.75-.52.28-.04.48.2.75.32h0Z"/><path class="cls-1" d="M30.87,74.47c.04.32.12.8-.28,1-.36.08-.83-.04-.95-.48-.2-.48.24-.56.48-.8.32-.08.51.08.75.28h0Z"/><path class="cls-1" d="M105.21,77.07c.55.8.95,1.8,1.03,2.84-.12.28.2.56-.04.76h-.16c-1.79-1.28-2.18-3.08-2.86-4.87-.16-.08-.2-.24-.16-.4.4-.36.67.36,1.07.48l1.11,1.2h0Z"/><path class="cls-1" d="M36.03,75.71s0,.08.04.08c-1.59,1.12-3.81,1.8-5.63.72-.04-.12.04-.32.2-.36,1.15-.36,2.26-.92,3.49-.76l1.9.32h0Z"/><path class="cls-1" d="M26.99,75.91c-1.35.84-2.58,2.48-4.24,2.88-.32.12-.52.56-.91.32.71-2.16,3.05-3.32,5.16-3.52v.32h0Z"/><path class="cls-1" d="M102.87,77.7c.12.32,0,.76-.32.84-.2.2-.59.2-.75,0-.36-.16-.36-.52-.36-.8.12-.28.4-.32.59-.44.36.08.64.08.83.4h0Z"/><path class="cls-1" d="M99.57,77.91c-.24.56-.91.88-1.43,1.04-1.35.48-2.58-.16-3.77-.48.04-.32.44-.2.63-.4,1.31-.28,2.66-.56,4.05-.2.12-.08.4-.12.52.04h0Z"/><path class="cls-1" d="M26.99,79.06c-.12.16-.16.52-.48.64-.28.12-.55,0-.79-.16-.08-.24-.36-.44-.16-.72.08-.28.4-.36.63-.44.4.04.71.28.79.68h0Z"/><path class="cls-1" d="M29.33,79.42c-.12.24-.24.6-.55.76-.32.08-.56-.08-.8-.28-.12-.24-.24-.52-.12-.8.08-.2.36-.24.55-.36.4-.04.75.36.91.68h0Z"/><path class="cls-1" d="M102.11,79.82c.04.32-.12.52-.28.76-.2.28-.6.32-.87.16-.28-.04-.36-.36-.48-.56-.24-.32.16-.52.28-.8.43-.36,1.15-.16,1.35.44h0Z"/><path class="cls-1" d="M103.86,79.74c.04.2.16.4.08.56-.24.2-.4.72-.87.52-.24.08-.36-.24-.47-.32-.16-.4-.04-1,.47-1.08.36-.12.6.2.79.32h0Z"/><path class="cls-1" d="M27.9,80.9c.08.44-.08.84-.4,1.08-.43.08-.99.08-1.15-.44-.04-.4,0-.92.48-1.16.4-.04.87.04,1.07.52h0Z"/><path class="cls-1" d="M30.16,80.74c-.08,1.12-.32,2.48-1.43,3.12-.64.12-1.27.72-1.9.32v-.2c.83-1.2,2.34-2.12,3.33-3.24h0Z"/><path class="cls-1" d="M95.88,81.66c.16.24-.12.44-.24.64-.24.28-.67.16-.95.04-.28-.12-.32-.52-.2-.8.08-.24.32-.36.52-.44.36-.04.67.28.87.56h0Z"/><path class="cls-1" d="M34.13,83.5c.55.92.24,2.16.55,3.16-.67.08-.95-.68-1.39-1.08-.87-1.2-.75-2.8-1.15-4.19.08-.12.2-.12.28-.08.59.4,1.03,1.16,1.51,1.68-.08.28.24.28.2.52h0Z"/><path class="cls-1" d="M97.87,81.98c0,.32-.36.4-.55.6-.28-.04-.51-.16-.75-.36-.12-.4.2-.52.4-.72.4-.16.79.04.91.48h0Z"/><path class="cls-1" d="M102.59,85.54c0,.12-.04.36-.24.28h-.16c-1.15-1.04-2.3-2.2-2.14-3.8l.24-.04c1.07.92,2.26,1.92,2.3,3.56h0Z"/><path class="cls-1" d="M99.61,84.26c.04.32-.16.56-.36.76-.44.12-1.11.08-1.19-.52-.04-.4.4-.6.6-.8.48-.12.79.2.95.56h0Z"/><path class="cls-1" d="M96.99,85.1c-.55,1.48-2.06,2.24-3.09,3.36-.2-.12-.12-.44-.08-.6.4-1.52,1.59-3,3.05-3.6.63.08,0,.52.12.84h0Z"/><path class="cls-1" d="M99.97,86.29c0,.36-.36.52-.55.72-.32-.04-.63-.12-.87-.44-.04-.4.28-.52.51-.72.4-.08.75.12.91.44h0Z"/><path class="cls-1" d="M70.46,13.77c.54,0,.98.44.98.99s-.44.99-.98.99h-11.76c-.54,0-.98-.44-.98-.99s.44-.99.98-.99h11.76ZM62.14,15.47c1.15,0,.06-1.39-.56-1.39h-1.15c-1.15,0-.06,1.39.55,1.39h1.15ZM66.96,15.47c1.15,0,.06-1.39-.56-1.39h-1.15c-1.15,0-.06,1.39.56,1.39h1.15ZM70.51,14.08h-.44c-1.15,0-.17,1.39.44,1.39.77,0,.82-1.39,0-1.39h0Z"/><path class="cls-1" d="M69.42,27.26l2.25.86,2.21-.86-.87,3.31,1.75-.36-.6,2,.6,1.92-1.55-.42.68,3.57-2.21-.86-2.25.86.91-3.57-1.79.5.48-2.01-.48-1.92,1.71.28-.84-3.31h0ZM72.74,33.23c.51,0,.55-.7.55-1.3,0-1.36-1.08,0-1.63-1.28-.4,1.08-1.51.08-1.51,1.24,0,.8,0,1.34.79,1.34h1.8ZM70.54,32c0,.52.7.17,1.21.17s1.21.35,1.21-.17c0-.74-.7-.48-1.21-.48s-1.21-.26-1.21.48h0Z"/><polygon class="cls-1" points="64.16 32.13 64.16 31.71 63.79 31.64 64.08 31.33 63.9 30.99 64.28 31.03 64.52 30.62 64.75 31.03 65.14 30.99 64.95 31.33 65.25 31.64 64.87 31.71 64.87 32.13 64.52 31.86 64.16 32.13 64.16 32.13"/><polygon class="cls-1" points="62.42 34.37 62.42 33.95 62.04 33.88 62.34 33.57 62.15 33.24 62.54 33.28 62.77 32.87 63 33.27 63.39 33.24 63.21 33.57 63.51 33.88 63.13 33.95 63.13 34.37 62.77 34.11 62.42 34.37 62.42 34.37"/><polygon class="cls-1" points="65.38 34.09 65.38 33.67 65 33.6 65.3 33.29 65.12 32.95 65.5 32.99 65.73 32.58 65.96 32.99 66.35 32.95 66.17 33.29 66.47 33.6 66.09 33.67 66.09 34.09 65.73 33.82 65.38 34.09 65.38 34.09"/><polygon class="cls-1" points="65.73 35.77 65.73 35.53 65.52 35.49 65.68 35.31 65.58 35.12 65.8 35.15 65.93 34.92 66.06 35.14 66.28 35.12 66.17 35.31 66.34 35.49 66.13 35.53 66.13 35.77 65.93 35.61 65.73 35.77 65.73 35.77"/><polygon class="cls-1" points="62.98 37.68 62.98 36.96 62.33 36.84 62.84 36.32 62.53 35.74 63.19 35.81 63.59 35.11 63.98 35.8 64.65 35.74 64.34 36.32 64.84 36.84 64.2 36.96 64.2 37.68 63.59 37.23 62.98 37.68 62.98 37.68"/><polygon class="cls-1" points="64.38 0 65.78 3.43 69.31 2.39 67.52 5.64 70.53 7.77 66.9 8.38 67.12 12.09 64.38 9.6 61.64 12.09 61.86 8.38 58.22 7.77 61.24 5.64 59.44 2.39 62.98 3.43 64.38 0 64.38 0"/><path class="cls-1" d="M51.58,77.04c-.42.16-.58.27-.48.71l.5,2.1c.09.39.12,1-.14,1.38-.31.45-.96.74-1.44.85-.34.08-1.09.22-1.69-.03-.4-.17-.66-.35-.82-1.06l-.52-2.21c-.13-.55-.34-.52-.79-.45l-.04-.17,2.66-.64.04.16c-.52.14-.76.21-.62.79l.52,2.21c.09.38.3,1.29,1.44,1.01,1.39-.33,1.16-1.35,1.06-1.77l-.48-2.01c-.1-.4-.24-.61-.93-.47l-.04-.17,1.73-.42.04.16h0Z"/><path class="cls-1" d="M55.52,77.48c-.24-.43-.88-1.09-1.82-.88-.41.09-.8.39-.71.82.08.36.26.47.99.6l1.27.22c.29.05.98.3,1.14,1.03.13.58-.2,1.5-1.65,1.82-.75.17-1.16.02-1.4.08-.17.04-.18.17-.19.28l-.23.05-.36-1.64.23-.05c.31.63.93,1.28,1.93,1.06.95-.21.84-.88.82-.96-.1-.44-.5-.52-1.06-.61l-.58-.09c-1.47-.24-1.6-.81-1.66-1.12-.09-.4-.04-1.36,1.46-1.69.63-.14,1.05,0,1.28-.06.18-.04.2-.15.21-.28l.24-.05.32,1.44-.22.05h0Z"/><path class="cls-1" d="M60.76,80.1l-2.88.28-.02-.17c.58-.1.78-.13.72-.7l-.34-3.56c-.56.08-1.39.19-1.45,1.29l-.23.02-.1-1.36,4.83-.46.14,1.36-.23.02c-.26-1.07-1.1-1.02-1.65-.99l.34,3.56c.06.57.25.57.85.55v.17h.01Z"/><path class="cls-1" d="M67.48,80.1l-1.66-.03-1.63-2.16h-.22s-.03,1.33-.03,1.33c-.01.54.17.57.7.64v.17s-2.74-.05-2.74-.05v-.17c.55-.04.72-.06.73-.61l.06-3c.01-.58-.24-.6-.7-.64v-.17s2.61.05,2.61.05c.57.01,2.28.1,2.26,1.24-.02.84-.85,1.03-1.29,1.14l1.59,1.97c.11.12.23.13.33.14v.17h0ZM63.98,77.69c1.06.01,1.48-.13,1.5-1.01.01-.69-.31-.99-.96-1-.45,0-.46.07-.51.28l-.03,1.73h0Z"/><path class="cls-1" d="M72.79,80.78l-2.6-.33.02-.17c.5.03.65.04.67-.18.02-.18-.17-.71-.26-.94l-1.81-.23c-.28.46-.45.72-.46.82-.03.26.35.32.62.37l-.02.17-1.63-.2.02-.17c.44,0,.58-.21.88-.69l2.24-3.47.22.03,1.35,3.77c.27.77.37,1.01.76,1.05l-.02.17h0ZM70.54,78.89l-.61-1.74-.96,1.54,1.57.2h0Z"/><path class="cls-1" d="M77.5,81.74l-4.6-.84.03-.17c.45.03.7.06.77-.35l.58-3.23c.08-.44-.24-.51-.6-.6l.03-.17,2.78.51-.03.17c-.56-.08-.81-.12-.91.47l-.57,3.15c-.06.32.11.41.64.5,1.2.22,1.75-.25,2.25-.94l.23.04-.6,1.46h0Z"/><path class="cls-1" d="M80.55,82.43l-2.77-.58.04-.17c.43.06.75.09.83-.32l.67-3.22c.09-.44-.28-.53-.64-.63l.03-.17,2.77.58-.03.17c-.37-.06-.76-.14-.85.31l-.67,3.21c-.09.43.22.51.65.63l-.03.17h0Z"/><path class="cls-1" d="M86.18,83.15l-2.61-.27.02-.17c.5.02.65.03.67-.2.02-.18-.19-.71-.28-.94l-1.81-.19c-.28.46-.43.73-.44.83-.03.26.36.32.63.36l-.02.17-1.63-.17.02-.17c.44,0,.58-.23.87-.71l2.17-3.51.22.02,1.43,3.74c.29.76.39,1,.78,1.03l-.02.17h0ZM83.89,81.3l-.65-1.73-.92,1.56,1.57.16h0Z"/><path class="cls-1" d="M65.49,28.36c0-1.63-.91-.1-1.42-1.49-.37,1.17-1.47.19-1.47,1.45,0,.48.13.76.36.91v.48c0,.13.1.23.22.23h1.73c.13,0,.23-.1.23-.23v-.52c.21-.18.35-.46.35-.83h0ZM64.08,28.67c-.48,0-1.12.33-1.12-.24,0-.8.54-.62,1.02-.62s1.21-.18,1.21.62c0,.56-.64.24-1.12.24h0Z"/><path class="cls-1" d="M79.69,48.38c.41,0,.75-.29.75-.66s-.33-.66-.75-.66-.75.3-.75.66.34.66.75.66h0Z"/><path class="cls-1" d="M76.17,24.22s-.35.59-.35.7c0,.22.16.39.36.39s.35-.18.35-.39c0-.01-.36-.7-.36-.7h0Z"/><path class="cls-1" d="M52.21,24.22s-.35.59-.35.7c0,.22.16.39.36.39s.36-.18.36-.39c0-.01-.36-.7-.36-.7h0Z"/><path class="cls-1" d="M58.2,24.22s-.35.59-.35.7c0,.22.16.39.36.39s.36-.18.36-.39c0-.01-.36-.7-.36-.7h0Z"/><path class="cls-1" d="M64.19,24.22s-.35.59-.35.7c0,.22.16.39.36.39s.36-.18.36-.39c0-.01-.36-.7-.36-.7h0Z"/><path class="cls-1" d="M70.18,24.22s-.35.59-.35.7c0,.22.16.39.36.39s.36-.18.36-.39c0-.01-.36-.7-.36-.7h0Z"/><path class="cls-1" d="M52.23,32.44s.35.59.35.7c0,.22-.16.39-.36.39s-.36-.17-.36-.39c0-.01.36-.7.36-.7h0Z"/><path class="cls-1" d="M52.23,40.43s.35.59.35.7c0,.22-.16.39-.36.39s-.36-.17-.36-.39c0-.01.36-.7.36-.7h0Z"/><path class="cls-1" d="M53.18,46.75s.35.59.35.7c0,.21-.16.39-.36.39s-.36-.18-.36-.39c0-.01.36-.7.36-.7h0Z"/><path class="cls-1" d="M58.21,50.12s.35.59.35.7c0,.22-.16.39-.36.39s-.36-.17-.36-.39c0-.01.36-.7.36-.7h0Z"/><path class="cls-1" d="M76.48,32.44s-.35.59-.35.7c0,.22.16.39.36.39s.36-.17.36-.39c0-.01-.36-.7-.36-.7h0Z"/><path class="cls-1" d="M76.48,40.43s-.35.59-.35.7c0,.22.16.39.36.39s.36-.17.36-.39c0-.01-.36-.7-.36-.7h0Z"/><path class="cls-1" d="M75.52,46.75s-.35.59-.35.7c0,.21.16.39.36.39s.36-.18.36-.39c0-.01-.36-.7-.36-.7h0Z"/><path class="cls-1" d="M70.49,50.12s-.35.59-.35.7c0,.22.16.39.36.39s.36-.17.36-.39c0-.01-.36-.7-.36-.7h0Z"/><path class="cls-1" d="M64.38,53.68s-.35.59-.35.7c0,.22.16.39.36.39s.36-.18.36-.39c0-.01-.36-.7-.36-.7h0Z"/><path class="cls-1" d="M74.12,41.76c.07.11.26.15.5.07l.23-.64s-.26-.3-.43-.26c-.64.15-1.32.23-1.7.84,0,.42.3.8.6.99.23-.08.26.15.41.27.04.19-.07.34-.26.34-.45-.46-1.24.15-1.58-.42.15-.57.45-1.21-.04-1.75.04-.11.23-.23.11-.34-.19-.53-.75-.11-1.09-.11-.57-.08-1.02.23-1.36.68.04.19.11.38.3.57.15-.04.23,0,.26.15l-.38.23c.11.11.11.27.15.42-.26.11-.53-.26-.64-.46,0-.3.04-.84-.38-.91-.08,0-.33.11-.33.11-.09.12-.15.35-.15.63s.15.68.15.68c0,0,1.16.86,1.43,1.39-.34.68-.34,1.63-1.13,2.01-.23.15-.23.38-.23.61l.19.15c.49-.27,1.43-.34,1.36-1.18.19-.34.38-.72.72-.99.38-.08.72.11.87.42-.11.57-.49.95-1.02,1.14-.07.08-.04.19-.04.3.15.27.56.15.79.11.64-.42.91-1.18,1.47-1.4.08.38-.75.49-.23.87.34-.08.79.04,1.02-.42-.26-.64.9-.95.19-1.52,0-.57.6-.8.57-1.4-.23-.61-.94-.61-1.13-1.18.23-.15.57-.11.79,0h0Z"/><path class="cls-1" d="M46.6,48.67c.41,0,.75-.3.75-.66s-.33-.66-.75-.66-.75.29-.75.66.33.66.75.66h0Z"/><path class="cls-1" d="M7.75,71.36c.41,0,.74-.32.74-.71s-.33-.71-.74-.71-.74.32-.74.71.33.71.74.71h0Z"/><path class="cls-1" d="M32.48,76.87h-.05l-.05-.06h0v.04s0,.02.02.02h0s-.08,0-.08,0h0s.02,0,.02-.02v-.09s0-.02-.02-.02h0s.07,0,.07,0c.02,0,.07,0,.07.04,0,.02-.02.03-.04.03l.05.06s0,0,0,0h0ZM32.37,76.8s.04,0,.04-.03c0-.02-.01-.03-.03-.03-.01,0-.01,0-.01,0v.05h0Z"/><path class="cls-1" d="M32.58,76.78s-.02-.04-.05-.04c-.01,0-.03,0-.03.02,0,.01,0,.02.02.02h.03s.03.03.03.05c0,.02-.01.04-.06.04-.02,0-.03,0-.04,0,0,0,0,0,0,0h0v-.05h0s.02.04.05.04c.03,0,.03-.02.03-.02,0-.01-.01-.02-.03-.02h-.02s-.04-.04-.04-.05c0-.01,0-.04.05-.04.02,0,.03,0,.04,0,0,0,0,0,0,0h0v.04h0Z"/><path class="cls-1" d="M32.83,76.74s-.01,0-.02.01l-.05.12h0l-.04-.09h0l-.04.09h0l-.05-.12s0-.01-.02-.01h0s.07,0,.07,0h0s-.02,0-.02.01c0,0,0,0,0,0l.03.07h0l.03-.06v-.02s-.01,0-.03,0h0s.07,0,.07,0h0s-.02,0-.02.01c0,0,0,0,0,.01l.02.07h0l.03-.07s0,0,0,0c0,0,0,0-.02,0h0s.04,0,.04,0h0Z"/><path class="cls-1" d="M32.84,76.87s.05-.01.06-.05c0,0,0,0-.01,0,0,0,0,0-.01,0-.02,0-.04,0-.04-.04,0-.01,0-.04.05-.04.02,0,.05.01.05.06,0,.04-.03.07-.1.08h0ZM32.89,76.81s.01,0,.01,0c0,0,0-.01,0-.02,0-.04,0-.05-.02-.05-.01,0-.01.01-.01.03,0,.03,0,.04.02.04h0Z"/><path class="cls-1" d="M32.97,76.78s.04,0,.05,0c.01,0,.03.02.03.04,0,.03-.03.05-.07.05-.02,0-.03,0-.03-.02,0,0,0-.01.01-.01.02,0,.03.02.04.02,0,0,.02,0,.02-.02,0-.01-.01-.02-.03-.03-.02,0-.03,0-.05,0l.02-.07h.07v.02h-.07v.02h0Z"/><path class="cls-1" d="M78.16,23.27v-.02h-27.64v.02h0l.02,21.12c0,2.15.91,4.04,2.17,4.62l10.63,6.75c.24.27.58.44.97.44.33,0,.64-.13.86-.34l10.8-6.85c1.26-.58,2.17-2.46,2.17-4.62l.02-21.12h0ZM77.38,44.67c-.14,1.6-.69,2.93-1.79,3.68l-10.42,6.63h-.06c-.22.18-.5.28-.8.28s-.59-.11-.82-.29l-10.4-6.61c-1.1-.75-1.65-2.08-1.79-3.68v-20.67h26.09v20.67h0Z"/><path class="cls-1" d="M68.06,54.06l.33-.16c-.14.05-.24.1-.33.16h0Z"/><path class="cls-1" d="M47.21,82.93l-2.6.3-.02-.17c.49-.09.64-.11.61-.34-.02-.18-.34-.65-.47-.85l-1.81.21c-.17.51-.27.8-.26.91.03.26.42.23.69.21l.02.17-1.63.19-.02-.17c.43-.1.51-.35.7-.88l1.36-3.9.23-.03,2.2,3.34c.45.68.6.89.98.84l.02.17h0ZM44.57,81.62l-1-1.54-.57,1.73,1.57-.18h0Z"/><path class="cls-1" d="M92.99,73.03c-.48-1.24-1.47-2.08-2.7-2.48-1.27-.28-2.62-.08-3.45.88-1.43,1.16-.44,3.08-.4,4.63,0,.32.04.56-.28.72-5.75-.52-11.11-1.96-16.82-2.56-1.31-.23-2.63-.17-3.88-.43l-1.6-.17c-4.96.16-9.92.44-14.56,1.64-.99.32-2.1.4-3.09.76-.71-.12-1.31.4-1.98.2l-1.31.31c-.12.02-.27.01-.44-.03-.63-1.64,1.27-2.64.67-4.23-.52-.92-1.55-1.8-2.74-1.64-1.35-.16-2.54.6-3.17,1.64-.91,2,.24,4.07.6,6.03-.08.64.64,1.36,0,1.88-1.27-.88-2.94-1.36-4.48-.92-.48.24-1.35-.08-1.59.48,1.71.92,3.89.8,5.79.72.24-.08.4-.12.6.04.16,1.04-.2,2.44.44,3.36.71.96,1.9,1.2,3.05,1.32,3.65-.12,6.9-1.2,10.23-2.04.52-.04.91-.32,1.47-.32,1.78-.4,3.73-.72,5.63-.76-.83,1.08-1.31,2.28-1.67,3.6-.48,1.08.83,1.24,1.23,1.84-1.23.36-2.1,1.2-3.25,1.68-2.54-.08-4.68.88-7.06,1.16-.04.52.83.36.91.88-.12.36-.48.4-.75.6-.04.24,0,.28.24.32.24-.28.75-.08.99-.36.79,0,1.47-.24,2.22-.28.67-.28,1.43-.32,2.02-.8.83-.24,1.35-.8,2.18-1.04,1.19,0,2.26-.4,3.37-.48v.24c-.91,1.48-1.86,3-2.82,4.39-.16.28.04.56.28.64.55.16,1.11,0,1.55-.24.83-1.44,1.59-2.8,2.26-4.27.28-1.36,1.27-2.08,2.26-3,.16-.08.4-.32.55-.08-.79.92-1.31,1.8-1.9,2.8-.32,1.12-.4,2.56.6,3.48.48.4,1.19.28,1.82.32,1.55-.8,3.53.48,4.72-1.04.71-.12.83.72,1.23,1.12.68.2,1.39.88,2.06.4-.04-.44-.52-.84-.75-1.24-.48-.84-1.07-1.52-1.51-2.28-.2-.56-.56-.92-.64-1.48.72.24,1.35.72,2.14.84.67.28,1.51.24,2.14.64.52.68,1.31,1.08,1.98,1.52.99.48,2.1.56,3.13.96.4.04.99.36,1.27,0-.16-.2-.36-.32-.59-.44-.12-.52.71-.24.99-.64-.1-.2-.27-.28-.46-.3-.57-.3-1.98-.41-2.36-.62-.48-.08-.91-.28-1.39-.44-2.38,0-3.69-2.16-5.59-2.96.44-.4,1.11-.72,1.39-1.32.36-.56.48-1.48.12-2.12-.36-1.24-1.94-1.08-2.86-1.76l.12-.12c1.55-.08,2.9.28,4.28.56,3.81.52,7.34,1.96,11.31,2.04,2.18,0,4.92.12,5.99-2,.2-1.24.44-2.48.64-3.72.48-2,1.78-3.84,1.59-6.03h0ZM50.15,91.25l-.55-.52c.28-.36.87-.16,1.31-.4,1.03-.32,2.22-.72,3.37-.48-1.19.96-2.74,1.08-4.12,1.4h0ZM74.91,90.61c.95.43,2.86.85,4.23,1-.12.54-1.09.03-.98.8-1.23-.48-2.66-.72-3.57-1.68.08-.04.16-.16.32-.12h0ZM37.7,73.63c.12-.72.28-1.48.95-2,.95-.52,2.26-.4,3.13.12.28.16.48.4.64.76.2.68-.12,1.4-.6,1.8h-.4c0-.64,0-1.28.24-1.8-.04-.48-.44-.52-.75-.72-.67-.2-1.27.12-1.79.4-.4.48-.75,1.08-.51,1.76.28.44.04,1.04.2,1.52l-.12.16c-.47-.52-1.11-1.08-.99-2h0ZM39.56,74.77c.59.44,1.43.24,2.14.36.12.44.12,1-.2,1.36-.67-.16-1.55-.08-1.9-.72.08-.28-.12-.68-.04-1h0ZM39.44,73.43c.12-.32,0-.8.44-.88.28-.08.71-.08.75.24-.04.48-.08.96-.2,1.4-.55.04-.83-.28-.99-.76h0ZM58.04,86.25c-.2-1.4.36-2.6,1.27-3.6.56-.12,1.19-.24,1.71.08-1.03.28-2.34.52-2.58,1.84.04.52-.12.8.12,1.24.44.76,1.43.44,1.98,1.04,0,.2-.16.44-.36.48-.67-.4-1.51-.56-2.14-1.08h0ZM56.61,89.01c.95-.4,1.94-1.24,3.01-.88-.75.6-1.98.84-3.01.88h0ZM60.38,89.41c-.56,1.28-1.19,2.52-1.94,3.75-.08.2-.4.24-.63.28,0-.56.56-1,.79-1.48.83-1.08,1.07-2.24,2.02-3.28.24.24-.24.4-.24.72h0ZM61.38,87.09v.16h-.08v-.2h.16s-.12,0-.16.04h.08ZM61.02,86.01c-.67-.08-1.31-.28-1.9-.48-.4-.4,0-.84,0-1.28.55-.88,2.14-1.32,2.9-.52-.12.88-.44,1.64-.99,2.28h0ZM61.89,86.01c.12-.52.36-1.2.63-1.68-.04.52-.28,1.24-.63,1.68h0ZM62.33,82.78c-.52-.12-.79-.72-1.35-.72.48-.16.95-.12,1.51-.04.2.28-.12.52-.16.76h0ZM62.8,83.98h-.04v-.44h.04v.44h0ZM62.84,85.81c-.04-.16.08-.36.12-.56.2-.2.4.16.48.28-.12.2-.36.32-.6.28h0ZM63.44,83.34c.2-.56.24-1.04.59-1.48.4,0,.75,0,1.07.16.08.8,1.07,1.88,0,2.56-.36.16-.87.52-1.27.16-.52-.44-.6-.84-.4-1.4h0ZM66.33,82.22c-.08-.36.36-.08.52-.24l1.23.08c-.63-.08-1.43,1.4-1.74.16h0ZM68.32,82.74c-.48.16-.83.72-1.31.84.24-.44.83-.88,1.31-.84h0ZM66.65,85.22v.12h-.04v-.12h.04ZM66.73,87.65c-.04.08.04.2-.08.28l-.91-.72c.44-.08.75.12.99.44h0ZM65.66,86.41c.08-.08.28-.08.36,0h-.36ZM65.1,85.81c.16-.24.36-.6.63-.6,0,.04.04.08.08.12-.24.2-.44.4-.71.48h0ZM64.19,85.74h-.16l.24-.24c.12.08-.04.16-.08.24h0ZM64.31,87.25c.52-.56.99.32,1.19.76.6.88,2.14,1.68,1.55,2.88-.75.68-1.94.04-2.78.56-.44-.04-1.19.08-1.43-.36.44-1.28.83-2.72,1.47-3.84h0ZM63.2,88.01l.2-.32c-.32.96-.79,1.96-1.31,2.88-.24-.96.75-1.72,1.11-2.56h0ZM64.95,92.77c-.75.04-1.9.48-2.62-.16.04-.32-.32-.48-.28-.8.63-.24,1.19.52,1.78-.04.91.04,1.86-.12,2.78.08.44.12,1.11-.72,1.19.12-.32,1.32-1.9.4-2.85.8h0ZM67.25,87.01v-.12h.08v.12h-.08ZM67.48,89.53c.04.4.44.56.2.92-.08-.16-.32-.52-.2-.92h0ZM68.59,91.93l-.2.08c-.2-.16-.12-.6-.08-.84.24.2.44.48.28.76h0ZM70.58,92.89c-.04.12-.24.12-.32.04-1.19-1.52-1.74-3.12-2.5-4.79l.16-.04c.95,1.56,1.71,3.28,2.66,4.79h0ZM72.05,89.21c-.08.04-.08.12-.08.16-1.15.04-1.9-.64-2.78-1.24l-.04-.2c1.07.08,1.94.76,2.9,1.28h0ZM71.01,83.9c.48.12.52.64.55,1.04-.04.88-.52,1.64-1.35,1.96-.44.24-1.11.32-1.55.16.95-.04,1.98-.4,2.38-1.36l-.04-1.8h0ZM70.14,83.74c.2.56.55,1.08.36,1.76-.4.76-1.19.76-1.9.92-.36.04-.63-.08-.91-.28.04-.16-.04-.28-.16-.4.12-.52-.91-1.04-.2-1.48.63-.6,2.14-1.96,2.82-.52h0ZM90.29,80.82c-.32.4-.04,1.04-.44,1.4,0,.72-.6,1.08-1.11,1.36-4.72,1.04-9.36-.56-13.92-1.36-6.39-1.4-13.84-1.8-20.35-.32-3.05.56-6.03,1.28-8.96,2.12-1.83.24-3.81.52-5.55-.04-1.43-.68-.83-2.52-1.27-3.8.08-1-.28-1.8-.32-2.76-.12-.32-.2-.72-.16-1.04.59.08,1.19.52,1.82.68,3.33.64,6.31-.44,9.4-1,2.97-.64,6.03-1.16,9.16-1.4,3.57-.04,7.22-.24,10.63.36,1.11.04,2.06.32,3.13.4,2.22.28,4.28.88,6.55,1.04.36.12.79.12,1.19.2,3.57.56,7.57,1.56,10.99,0,0,1.44-.6,2.76-.79,4.15h0ZM89.18,75.95c.04.64-.56.48-.87.72h-.95c-.2-.32-.12-.8-.12-1.12.63.12,1.35.12,1.94.4h0ZM88.74,74.95c.44-.44-.12-2.96,1.11-1.32,0,.32.04.8-.28,1.04-.2.16-.52.48-.83.28h0ZM91.96,74.55c-.36.72-.91,1.24-1.71,1.36.04-.96.91-1.64.6-2.72-.52-.76-1.55-1-2.5-.8-.36.24-.2.64-.32,1l-.16,1.32c-.8,0-.83-.72-1.07-1.28.04-.84.4-1.68,1.23-2.08.63-.32,1.66-.28,2.3.08.52.12,1.11.36,1.31.84.6.56.44,1.56.32,2.28h0Z"/></svg>