<?xml version="1.0" encoding="UTF-8"?><svg id="Layer_1" xmlns="http://www.w3.org/2000/svg" viewBox="0 0 83.26 51.86"><defs><style>.cls-1{fill:#959ca1;}.cls-2{fill:#fff;}.cls-3{fill:#e20020;}</style></defs><g id="Group_4941"><path id="Path_227" class="cls-1" d="M0,12.06l7.28,2.54v21.76l-7.28-3.47V12.06ZM1.98,14.84v16.81l3.33,1.58v-17.23l-3.33-1.16Z"/><path id="Path_228" class="cls-1" d="M21.72,19.65l7.28,2.54v24.5l-7.28-3.46v-23.58ZM23.69,22.43v19.55l3.33,1.58v-19.97l-3.33-1.16Z"/><path id="Path_229" class="cls-1" d="M10.86,15.85l7.28,2.55v23.13l-7.28-3.47V15.85ZM12.83,18.64v18.18l3.33,1.59v-18.6l-3.33-1.17Z"/><path id="Path_230" class="cls-1" d="M32.57,23.45l7.28,2.54v25.87l-7.28-3.46v-24.95ZM34.55,26.23v20.92l3.33,1.59v-21.35l-3.33-1.16Z"/><path id="Path_231" class="cls-3" d="M39.85,0v13.94l-7.28,2.27V2l7.28-2Z"/><path id="Path_232" class="cls-3" d="M28.99,2.98v14.35l-1.97.61-5.31-1.85V4.99l7.28-2Z"/><path id="Path_233" class="cls-2" d="M18.14,5.97v9.29l-7.28-2.54v-4.75l7.28-2ZM16.16,8.56l-3.33.91v1.85l3.33,1.16v-3.92Z"/><path id="Path_234" class="cls-2" d="M7.28,8.97v2.5l-4.03-1.41,1.02-.28,3.01-.81Z"/><path id="Path_235" class="cls-1" d="M83.26,12.06v20.84l-7.28,3.47V14.61l7.28-2.54ZM81.28,14.84l-3.33,1.16v17.23l3.33-1.58V14.84Z"/><path id="Path_236" class="cls-3" d="M61.54,19.65v23.58l-7.28,3.47v-24.5l7.28-2.54Z"/><path id="Path_237" class="cls-1" d="M72.4,15.85v22.21l-7.28,3.47v-23.13l7.28-2.55ZM70.43,18.64l-3.33,1.17v18.6l3.33-1.59v-18.18Z"/><path id="Path_238" class="cls-3" d="M50.68,23.45v24.95l-7.28,3.46v-25.87l7.28-2.54Z"/><path id="Path_239" class="cls-1" d="M43.4,0l7.28,2v14.22l-7.28-2.27V0ZM45.38,2.59v9.9l3.33,1.04V3.51l-3.33-.91Z"/><path id="Path_240" class="cls-1" d="M54.26,2.98l7.28,2v11.12l-5.31,1.85-1.98-.61V2.98ZM56.24,5.58v10.28l3.33-1.16V6.49l-3.33-.91Z"/><path id="Path_241" class="cls-1" d="M65.12,5.97l7.28,2v4.75l-7.28,2.55V5.97ZM67.09,8.56v3.92l3.33-1.16v-1.84l-3.33-.92Z"/><path id="Path_242" class="cls-1" d="M75.98,8.97l3.01.81,1.02.28-4.03,1.41v-2.5Z"/></g></svg>