<?xml version="1.0" encoding="UTF-8"?><svg id="Layer_1" xmlns="http://www.w3.org/2000/svg" viewBox="0 0 85.04 85.04"><defs><style>.cls-1{fill:#482f8b;}</style></defs><path class="cls-1" d="M48.72,29.71s0-.04,0-.05c-.02-.33-.27-.64-.5-.75-.19-.09-.58-.05-.95.05.09.11.17.22.22.31l.05.09.08.17c.05.13.13.32.28.46h.76c.04-.09.07-.18.07-.28h0Z"/><path class="cls-1" d="M47.38,29.62l-.05-.11-.06-.11c-.07-.12-.16-.3-.34-.44l-.07-.05c-.22-.11-1.26-.24-1.94-.02.12.13.22.27.29.38l.05.1.08.16c.05.14.13.32.28.47h1.97c-.09-.14-.16-.27-.19-.37h0Z"/><path class="cls-1" d="M45.09,29.62l-.05-.12h0s-.07-.11-.07-.11c-.08-.14-.19-.34-.42-.48-.22-.11-1.26-.24-1.94-.02.13.13.23.27.29.38l.05.09.08.17c.05.13.13.32.28.46h1.97c-.1-.14-.16-.28-.19-.37h0Z"/><path class="cls-1" d="M42.81,29.62l-.05-.11-.07-.11c-.08-.15-.19-.34-.41-.48-.22-.11-1.26-.24-1.94-.02.13.13.23.27.29.38l.06.09.08.17c.05.13.13.32.28.46h1.97c-.1-.14-.16-.27-.19-.37h0Z"/><path class="cls-1" d="M40.52,29.62l-.05-.11-.07-.11c-.08-.15-.19-.34-.41-.48-.23-.12-1.28-.24-1.97-.02.12.12.21.24.27.34l.06.08.08.16c.07.15.17.37.41.52h1.87c-.1-.14-.16-.27-.19-.37h0Z"/><path class="cls-1" d="M38.21,29.57l-.05-.11-.06-.1c-.08-.13-.19-.31-.37-.42l-.07-.05c-.27-.12-.71-.04-.98.19-.09.07-.11.19-.11.28v.03c0,.2.08.42.21.59h1.7c-.14-.15-.22-.31-.26-.42h0Z"/><path class="cls-1" d="M47.05,15.72c-1.36-1.63-3.05-2.17-4.17-2.29l-.16-.37.43.2v-.65l-.43.2.19-.43h-.65l.21.44-.45-.2v.65l.45-.21-.17.36c-1.12.05-2.82.67-4.18,2.31-.07.08-.13.29-.03.4.11.12.17.14.27.25.11.1.42.77.49.95.06.18.08.45.08.45,0,0-.04.34.09.47.1.1.31.09.35.16.04.07.03.16.32.09.29-.07,1.46-.52,2.89-.51,1.44,0,2.61.44,2.9.51.29.07.28-.03.31-.09.04-.07.25-.06.35-.16.13-.13.09-.47.09-.47,0,0,.01-.26.08-.45.07-.18.38-.85.49-.95.1-.11.17-.13.27-.25.1-.12.04-.33-.03-.4h0ZM42.15,16.79h0c-.19.09-.4.13-.55.15-.5.05-.59-.09-.63-.16-.13-.22.12-.63.45-.55,0,0-.1-.57-.66-.19,0,0-.01-.5-.42-.6-.27.32.03.73.03.73-.69,0-.41.55-.41.55.22-.26.68-.11.66.19,0,.17-.5.35-.88.2-.38-.15-.69-.9-.6-1.05.67-1.05,2.19-1.53,2.39-1.61.21-.08.34,0,.38.1.03.09.24.43.4.77h-.25l.34.65-.74-.3v.95l.74-.31-.24.47h0ZM45.43,17.11h0c-.38.14-.88-.04-.88-.2-.01-.3.45-.45.67-.19,0,0,.27-.55-.42-.55,0,0,.3-.4.03-.73-.41.09-.42.6-.42.6-.56-.38-.66.19-.66.19.33-.08.58.33.45.55-.04.07-.13.21-.63.16-.15-.01-.36-.06-.54-.15l-.23-.45.71.3v-.95l-.71.28.32-.63h-.25c.16-.35.36-.68.4-.77.04-.1.17-.18.38-.1.21.08,1.72.55,2.39,1.61.09.14-.22.9-.6,1.05h0Z"/><path class="cls-1" d="M42.65,18.51h-6.34v.63s.62,0,1.17.29c.44.24.63.73.69.9v7.18h-.38l.75,1.3.75-1.3h-.37v-.62h1.96v.62h-.38l.75,1.3.75-1.3h-.37v-.62h1.96v.62h-.37l.75,1.3.75-1.3h-.37v-.62h1.96v.62h-.37l.75,1.3.75-1.3h-.37v-7.2c.06-.19.25-.66.68-.89.54-.3,1.17-.29,1.17-.29v-.63h-6.25ZM46.3,22.29h-1.96v-2.92h1.96v2.92h0ZM42.6,19.37h1v2.92h-1.96v-2.92h.96ZM38.93,19.37h1.96v2.92h-1.96v-2.92h0ZM38.93,23.14h1.96v2.9h-1.96v-2.9h0ZM41.64,23.14h1.96v2.9h-1.96v-2.9h0ZM44.34,23.14h1.96v2.9h-1.96v-2.9h0Z"/><path class="cls-1" d="M36.47,19.37c0,.4.32.72.72.72s.72-.33.72-.72-.32-.72-.72-.72-.72.32-.72.72h0ZM36.79,19.37h0c0-.22.18-.4.4-.4s.4.18.4.4-.18.4-.4.4-.4-.18-.4-.4h0Z"/><path class="cls-1" d="M36.52,20.19l-.16,1.17,1.01.14.18-1.33-1.01-.14-.02.16h0ZM36.81,20.39h0c.13.02.24.03.38.05-.02.18-.07.5-.09.69-.14-.02-.24-.03-.38-.05.02-.18.07-.5.09-.69h0Z"/><path class="cls-1" d="M36.33,21.72l-.04,1.14,1.02.03.04-1.31-1.02-.03v.16h0ZM36.65,21.89h0c.13,0,.24,0,.38.01,0,.18-.01.48-.02.66-.13,0-.25,0-.38-.01,0-.18.02-.48.02-.66h0Z"/><path class="cls-1" d="M37.12,22.99h-.86s0,1.34,0,1.34h1.02s0-1.35,0-1.35h-.16ZM36.96,23.31h0c0,.19,0,.51,0,.7h-.38c0-.19,0-.51,0-.69.14,0,.25,0,.38,0h0Z"/><path class="cls-1" d="M36.24,24.53l-.12,1.17,1.02.11.14-1.33-1.02-.11-.02.16h0ZM36.54,24.73h0c.14.01.24.02.38.04-.02.18-.06.51-.07.69-.13-.01-.24-.02-.38-.04.02-.18.05-.51.07-.69h0Z"/><path class="cls-1" d="M36.06,25.94l-.27,1.15,1,.23.31-1.3-.99-.24-.04.16h0ZM36.33,26.17h0c.13.03.24.06.37.09-.04.18-.12.5-.16.68-.13-.03-.24-.06-.37-.09.04-.18.12-.49.16-.68h0Z"/><path class="cls-1" d="M35.7,27.27l-.55,1.04.91.47.62-1.18-.9-.48-.08.14h0ZM35.91,27.57h0c.12.06.22.11.33.18-.09.17-.24.45-.32.62-.12-.06-.22-.11-.33-.18.09-.17.24-.45.32-.61h0Z"/><path class="cls-1" d="M34.49,29.19c0,.4.32.72.72.72s.72-.33.72-.72-.32-.72-.72-.72-.72.33-.72.72h0ZM34.81,29.19h0c0-.22.18-.4.4-.4s.4.18.4.4-.18.4-.4.4-.4-.18-.4-.4h0Z"/><path class="cls-1" d="M48.09,18.65c-.4,0-.72.32-.72.72s.32.72.72.72.72-.33.72-.72-.32-.72-.72-.72h0ZM48.09,19.77h0c-.22,0-.4-.18-.4-.4s.18-.4.4-.4.4.18.4.4-.18.4-.4.4h0Z"/><path class="cls-1" d="M48.74,20.03l-1.02.14.18,1.33,1.01-.14-.16-1.17-.02-.16h0ZM48.55,21.08h0c-.13.02-.24.03-.37.05-.03-.18-.07-.5-.09-.69.13-.02.24-.03.37-.05.03.19.07.51.09.69h0Z"/><path class="cls-1" d="M48.94,21.55l-1.02.03.04,1.31,1.02-.03-.03-1.14v-.16h0ZM48.65,22.55h0c-.14,0-.25,0-.38.01,0-.18-.02-.48-.02-.66.13,0,.24,0,.38-.01,0,.18.02.48.02.66h0Z"/><path class="cls-1" d="M48,22.98v1.34s1.01,0,1.01,0v-1.34s-.85,0-.85,0h-.16ZM48.7,23.31h0c0,.19,0,.51,0,.69h-.38c0-.19,0-.51,0-.7.13,0,.24,0,.38,0h0Z"/><path class="cls-1" d="M49.02,24.37l-1.01.11.14,1.33,1.02-.11-.12-1.17-.02-.16h0ZM48.81,25.42h0c-.14.02-.24.03-.38.04-.02-.18-.05-.51-.08-.69.14-.02.24-.03.38-.04.01.18.05.51.07.69h0Z"/><path class="cls-1" d="M49.19,25.78l-1,.24.31,1.3,1-.23-.27-1.15-.04-.16h0ZM49.11,26.85h0c-.13.03-.24.06-.36.09-.04-.18-.12-.5-.16-.68.13-.03.24-.06.37-.09.04.18.12.5.16.68h0Z"/><path class="cls-1" d="M49.51,27.13l-.91.48.62,1.18.91-.47-.55-1.04-.07-.14h0ZM49.69,28.18h0c-.12.06-.22.11-.33.18-.09-.17-.24-.45-.32-.62.12-.06.22-.11.33-.18.09.16.24.45.32.61h0Z"/><path class="cls-1" d="M50.07,28.46c-.4,0-.72.33-.72.72s.32.72.72.72.72-.33.72-.72-.32-.72-.72-.72h0ZM50.07,29.59h0c-.22,0-.4-.18-.4-.4s.18-.4.4-.4.4.18.4.4-.18.4-.4.4h0Z"/><path class="cls-1" d="M23.29,30.47l.97.45.71.29,1.25.52c-.1-.34-.07-.6-.07-.6,0,0,.38.23.75-.18.36-.42.03-1.09-.57-1.66-.59-.57-1.29-.64-2.15-.34-.57.21-.99.72-1.29,1.3.12.07.25.14.38.22h0Z"/><path class="cls-1" d="M15.6,45.26c-1.1,1.15-1.58,1.61-1.81,1.96,0,0-.37.28-.18.44.18.16,1.45.4,2.67.3-.62.76-1.41,2.05-1.58,3-.2,1.09.4,2.15.92,2.31.53.17,1.04.04,1.44-.43.52-.62.74-2.24.74-2.24,0,0,.84.02,1.56,0-.69-3.59-1.89-6.77-2.49-8.07-.11.94-.43,1.86-1.26,2.73h0ZM33.48,40.37h0c-.31-.03-.65-.08-.75.03,0,0-.08-.73.08-1.01.15-.28.13-.49.36-.52,0,0-.65-.34-.88,0-.23.34-.36.73-.36.96,0,0-.21.28-.31.28,0,0,.05.57.08,1.09.03.52-.08,1.17-.28,1.89-.21.73-.8,1.71-.98,1.92-.13.15-.35.35-.48.22-.04-.08-.07-.16-.09-.27-.02-.14-.02-.22,0-.27.02-.39.17-.84.26-1.51.23-.48.49-1.03.66-1.49.33-.92.96-1.95.63-4.23-.33-2.28-2.48-3.83-3.07-4.29-.33-.26-.9-.54-1.81-.93-.71-.3-1.63-.67-2.81-1.15-.38-.15-.71-.31-1-.46-1.77-.93-2.06-1.8-2.17-2.3-.12-.57.37-1.9,2.22-1.99,1.85-.09,3.07,1.12,3.5,1.63.42.51.78,1.27,1.24,1.85.46.58,1.49.79,1.49.79.42.73,1.26,1.39,1.48,1.55.12.08.27.26.4.41l.1.13s-.02-.03-.03-.05c.08.09.14.16.18.19.1.07.21-.22.21-.49s-.07-.53-.19-.71c-.12-.19-.37-.97-.46-1.19-.07-.19-.15-.53-.18-.63,0-.02,0-.03,0-.03,0,0,.23-.87-.68-2.07-.64-.85-1.7-1.16-2.12-1.37-.42-.22-1.6-.98-2.31-1.27-.71-.29-1.99-.71-3.12-.63-1.14.08-2.88.58-3.63,2.61-.69,1.87.17,3.31.56,4.19.79-.39,1.53-.22,2.03-.1.7.16,1.55.53,2.05.9.7.51.86,1.33.86,1.96,0,.4-.06.73-.09.85-.1.43-.42.69-.66.85.07.1.15.2.23.36.07.14.11.28.13.39.52-.19,1.31-.24,2.26-.28l.53-.02c.14,0,.26.1.27.24,0,.14-.1.25-.24.26l-.54.02c-.79.03-1.99.07-2.35.36l-.5.39.09-.63s.03-.24-.1-.52c-.16-.31-.33-.47-.33-.47l-.3-.27.38-.15s.55-.22.65-.65c.04-.17.34-1.63-.57-2.29-.45-.33-1.24-.67-1.87-.82-.69-.16-1.64-.38-2.6.84-1.66,2.11-2.52,3.9-2.61,5.48,0,.13-.01.26-.01.38,0,1.45.52,2.33.98,3.12l.33.58c.44.86,1.88,4.27,2.69,8.56l.02.12c.06.33.12.66.18.84.78-.78,4.93-5.36,5.38-7.3l.02-.08.06-.05c.08-.07,1.62-1.39,1.62-3.67,0-.41-.05-.86-.17-1.33,0-.02,0-.04,0-.06,0-.11.08-.21.19-.24.13-.03.27.05.3.18.13.51.18.99.18,1.43,0,2.33-1.47,3.78-1.74,4.02-.38,1.41-2.28,3.83-3.78,5.56.1.48.07.74.07,1,0,.3.16.81.27,1.15.02.07.05.14.06.2.1.31-.11,2.17-.21,2.69-.1.52-1.05,1.31-1.5,1.63-.29.21-.21.42-.16.52,0,0,.36-.34.8-.31.44.03.88-.13,1.5.24.62.36.96.54,1.09.98.08.28.13.49.13.49,0,0,.44-.52.46-.86,0,0,.93-.6,1.45-.64.52-.05,1.14.13,1.19.41,0,0,.07-.56-.28-.91-.16-.15-.41-.36-.41-.36,0,0,.28-.23.47-.05,0,0-.05-.55-.31-.57-.26-.03-1.4-.03-1.81-.03s-1.22-.15-1.4-.64c-.18-.49-.05-2.36.18-2.56.09-.08.17-.11.25-.11.13,0,.23.06.25.11,0,0,.15-.55.36-.75.15-.15,1.08-1.24,1.61-2.56.97.02,1.82-.14,2.45-.55.88-.57,1.71-1.09,2.12-.96,0,0,.13-.7-.29-.88,0,0,.75-1.11.98-1.66.23-.54.6-.54.57-.26-.03.29-.26,1.42,1.19,1.3,0,0-.26-.23-.29-.54-.03-.31-.34-2.8-.13-3.31.2-.52.52-1.32.72-1.37.21-.05.34-.03.44.08,0,0-.18-.52-.49-.54h0Z"/><path class="cls-1" d="M45.83,21.8c-.03-.07-.08-.12-.11-.19-.03-.07-.12-.09-.16-.15-.04-.06-.01-.17-.06-.23-.04-.06-.12-.1-.17-.15-.05-.05-.14-.07-.2-.12-.06-.05-.12-.09-.18-.13-.06-.05-.12-.1-.18-.14-.05-.03-.1-.06-.14-.09v1.42h1.22c-.01-.07.02-.15,0-.21h0ZM44.62,24.29h0c.06-.03.12-.06.17-.09.07-.04.15-.08.21-.12.06-.05.16-.06.22-.11.06-.05.07-.16.12-.21.05-.06.11-.11.15-.17.05-.06.15-.08.19-.15h-1.07v.87h0ZM42.9,20.12h0c-.09,0-.17-.04-.25-.04-.06,0-.12.03-.19.03-.07,0-.14-.06-.21-.05-.07,0-.14.07-.2.07-.04,0-.09,0-.14,0v1.87h1.41v-1.9s-.1-.07-.15-.07c-.09-.01-.18.09-.27.09h0ZM41.91,24.77h0c.1.48.11.72.03.99h.92c0-.28.1-.62.43-1.02,0,0,.02,0,.02,0v-1.32h-1.41v1.35h0ZM39.64,23.46h0c.04.06.14.09.19.14.05.06.1.1.16.16.05.05.09.12.15.17.06.05.12.09.19.14.06.05.09.15.16.19.03.02.08.03.13.03v-.87h-.97s0,.03,0,.04h0ZM40.3,20.79h0c-.06.05-.13.1-.18.15-.06.05-.15.08-.2.13-.05.06-.08.14-.13.2-.05.06-.05.15-.1.21-.04.08-.09.14-.13.21-.04.08-.03.16-.06.24,0,.03-.02.05-.02.07h1.13v-1.4s-.05.07-.08.09c-.07.04-.16.05-.23.09h0Z"/><path class="cls-1" d="M66.29,59.47H18.64v4.38h47.91v-4.38h-.25ZM66.05,63.35H19.14v-3.38h46.91v3.38h0Z"/><path class="cls-1" d="M72.13,47.77v-.02c0-.22-.19-.38-.29-.46-.19-.28-.51-.62-1.14-1.27l-.68-.71c-.88-.92-1.18-1.88-1.24-2.99l.24-.43c.51-.87,1.14-1.96,1.03-3.78-.1-1.67-.99-3.55-2.72-5.74-.29-.36-.58-.62-.87-.8.07-.16.16-.35.16-.35.29-.64.69-1.5.69-2.55,0-.46-.08-.96-.27-1.5-.81-2.21-2.75-2.68-3.82-2.76-1.2-.09-2.54.36-3.23.64-.49.2-1.18.61-1.73.93l-.6.34-.31.14c-.53.23-1.34.58-1.89,1.3-.64.84-.75,1.54-.75,1.93,0,.13,0,.21.02.27,0,.03-.16.59-.16.59l-.11.29c-.09.26-.26.74-.33.86-.15.22-.23.52-.23.83,0,.21.06.58.27.69.09.05.2.05.29-.01,0,0,.14-.14.19-.2h0s.1-.12.1-.12c0,0,.36-.37.36-.37.25-.17,1.03-.81,1.48-1.53.22-.05,1.09-.29,1.54-.85l.64-.96.6-.89c.32-.38,1.51-1.63,3.32-1.55.97.04,1.47.44,1.72.77.22.28.3.59.3.81,0,.05,0,.09,0,.13-.08.35-.26,1.15-1.87,2.05-.26-.56-.72-1.29-1.49-1.58-.96-.35-1.74-.22-2.38.39-.78.74-1,1.49-.58,1.96.22.26.47.33.68.32-.02.16-.07.37-.21.61-1.01.43-1.53.7-1.86.95l-.09.07c-.75.58-2.74,2.11-3.06,4.36-.07.47-.1.88-.1,1.25,0,.46.05.84.12,1.19-.04-.05-.11-.11-.13-.14-.03-.29-.16-.66-.38-.97-.34-.49-1.08-.11-1.17-.07l-.24.23.34.19s.05.13.05.13l.12.27c.05.09.07.3.07.51,0,.04,0,.08,0,.11-.13,0-.26,0-.42.02h-.14c-.44.05-.66.64-.68.7l.15.06s.24.1.41.15c.15.1.45.85.58,1.17l.03.08c.1.26.06,1.25-.11,2.94l-.03.27c-.02.21-.21.39-.21.39l-.37.34.5.05c.53.05.93-.06,1.18-.32.24-.24.29-.57.29-.83,0-.09,0-.17-.02-.23.04.05.08.11.13.21.19.43.67,1.18.89,1.51-.17.19-.22.46-.22.7,0,.1,0,.2.02.28l.05.25.24-.07c.33-.1,1.3.52,1.93.93.61.39,1.41.59,2.44.59.55,1.28,1.43,2.33,1.59,2.49.12.12.25.47.3.65l.14.5s.2-.35.25-.44c.06,0,.16.05.16.05.15.21,0,1.87-.14,2.32.13.03.32.1.47.14.16-.59.3-2.51-.03-2.8l-.39-.17s-.08.02-.13.02c-.07-.2-.18-.45-.33-.6-.16-.15-1.05-1.2-1.56-2.48l-.06-.14h-.16c-1.01.02-1.77-.15-2.33-.51-.87-.56-1.55-.97-2.04-1,0,0,0,0,0,0,0-.17.04-.38.17-.44l.25-.1-.15-.22s-.74-1.1-.96-1.62c-.22-.5-.53-.62-.73-.57-.14.03-.27.16-.27.37v.12c.02.07.03.17.03.28,0,.18-.03.38-.16.52-.09.09-.23.14-.4.16.04-.08.06-.18.07-.28l.03-.26c.09-.85.17-1.74.17-2.37,0-.35-.02-.62-.09-.78l-.03-.07c-.38-.95-.59-1.36-.85-1.43,0,0,0,0-.01,0,0,0,.02-.02.03-.02h.15c.14-.03.38-.05.44-.02l.32.23.04-.38c0-.06.02-.22.02-.42,0-.24-.02-.54-.12-.72l-.1-.21s-.04-.07-.05-.1c.12-.03.24-.03.28.03.21.31.32.65.32.83v.08l.04.06c.1.14.19.22.26.27-.01.21-.07.95-.07.95,0,.06,0,.11,0,.17,0,.49.1,1.1.3,1.79.22.75.83,1.77,1.03,2,.2.22.37.33.54.34l.27-.11.15-.4v-.37s0-.02,0-.02v.08s-.11-.74-.11-.74l-.15-.81v-.04s-.66-1.47-.66-1.47l-.17-.44c-.32-.8-.72-1.81-.45-3.69.3-2.08,2.18-3.53,2.89-4.08l.1-.07c.29-.23.8-.49,1.76-.9l2.11-.87.7-.28,1.01-.47c1.75-.91,2.14-1.79,2.28-2.45.06-.29,0-.81-.37-1.31-.31-.4-.92-.89-2.06-.95-1.96-.09-3.22,1.17-3.68,1.71l-.63.94-.61.91c-.4.51-1.36.72-1.37.72l-.09.02-.05.09c-.4.69-1.21,1.34-1.41,1.47l-.45.45s-.02.03-.04.05c0-.04-.02-.08-.02-.13,0-.22.06-.44.16-.59.09-.15.22-.5.37-.95l.1-.28.21-.72v-.08s-.03-.09-.03-.23c0-.31.09-.91.66-1.65.48-.63,1.22-.95,1.71-1.16l.34-.16.62-.36c.5-.3,1.2-.72,1.67-.91.65-.26,1.91-.69,3.02-.61.97.07,2.71.49,3.44,2.47.58,1.58,0,2.81-.41,3.71l-.15.34c-.71-.27-1.36-.12-1.81-.01-.7.16-1.54.53-2.04.9-.69.5-.85,1.31-.85,1.93,0,.4.06.72.09.85.1.43.43.7.68.84-.08.1-.16.21-.24.38-.08.16-.11.3-.14.43-.57-.22-1.46-.27-2.28-.3l-.53-.02s-.17-.03-.2.19c-.03.23.17.26.17.26l.54.02c.8.03,2,.07,2.37.37l.45.35-.09-.56s-.04-.25.11-.54c.16-.31.34-.47.34-.47l.27-.24-.34-.13s-.56-.22-.67-.67c-.03-.17-.34-1.65.58-2.32.45-.33,1.25-.67,1.88-.82.7-.16,1.66-.38,2.63.85,1.67,2.12,2.52,3.91,2.62,5.49,0,.13,0,.26,0,.39,0,1.45-.52,2.34-.98,3.14l-.32.58c-.44.86-1.88,4.27-2.69,8.55l-.03.12c-.07.37-.13.72-.2.88-.66-.64-4.96-5.38-5.42-7.34l-.02-.08-.06-.05c-.08-.06-1.63-1.4-1.63-3.69,0-.42.05-.86.17-1.34,0,0,.05-.19-.16-.24-.21-.05-.27.13-.27.13-.13.5-.18.98-.18,1.42,0,2.34,1.49,3.79,1.73,4.01.36,1.35,2.11,3.62,3.58,5.34l-.02.07c-.12.48-.11.77-.1,1.01v.17c0,.29-.19.87-.26,1.08l-.02.07-.04.12c-.03.08-.04.23-.04.42,0,.73.16,1.97.24,2.22.13.44.61.78.61.8.21.06.1-.3.27-.24-.08-.12-.27-.35-.36-.63-.1-.28-.31-1.62-.31-2.18,0-.12,0-.2.02-.24,0,0,.06-.19.06-.19.14-.43.29-.91.29-1.22v-.18c0-.06-.01-.13-.01-.19,0-.12.02-.27.04-.44.91,1.04,1.63,1.79,1.71,1.84.15.1.27.08.34.05.24-.1.31-.44.47-1.25.53.02,1.14,0,1.44,0,.08.46.31,1.62.76,2.16.44.52,1.03.7,1.68.5.57-.18,1.12-1.09,1.12-2.09,0-.16-.01-.31-.04-.47-.15-.84-.76-1.91-1.35-2.72,1.05.02,2.13-.17,2.36-.38.08-.07.12-.17.12-.27h0ZM54.31,41.55h0l.16.42s.58,1.32.65,1.49c.01.06.14.78.14.78l.11.68v.06s0,.16,0,.16c0,0,0,.05-.02.09-.04-.03-.09-.07-.16-.15-.15-.17-.73-1.11-.94-1.83-.19-.65-.28-1.21-.28-1.67,0-.05,0-.1,0-.15,0,0,.03-.35.04-.66.09.28.19.55.28.78h0ZM61.66,31.09h0l-.69.28-1.55.64c.07-.23.11-.43.11-.55,0-.08,0-.13,0-.14l-.04-.33-.29.16s-.25.12-.47-.13c-.27-.31.09-.9.55-1.35.52-.49,1.11-.58,1.92-.29.49.18.92.68,1.23,1.36-.29.13-.76.35-.76.35h0ZM69.2,47.96h0l-.52-.05.33.41c.64.79,1.38,2.04,1.54,2.9.18,1.01-.39,1.94-.77,2.06-.46.15-.88.02-1.2-.36-.39-.47-.63-1.7-.69-2.13l-.03-.2h-.2s-.84.02-1.54,0c.64-3.23,1.68-6.11,2.3-7.53.15.87.49,1.74,1.28,2.57l.68.71c.63.65.94.97,1.1,1.22l.02.03.03.03s.08.07.1.11c-.25.11-1.3.32-2.44.22h0Z"/><path class="cls-1" d="M43.62,55.87c.6.33.89.24.89.24.11-.22,0-.88,0-.88-.28.28-.66-.04-.66-.04.14.52-.24.68-.24.68h0ZM32.38,38.39h.44v-.82c0-3.86-.02-6.64-.02-7.4h19.9c0,.76-.02,3.54-.02,7.4v.88h.43c0-5.04.02-8.45.02-8.5v-.22s-.22,0-.22,0h-20.56v.22s.02,3.41.02,8.44h0ZM50.59,50.74h0v-1.76s.03-.13.18-.15c0,0,0-.01,0-.02,0-.04-.01-.09-.04-.14-.23-.44-.42-1.09-.43-1.14,0,0-.21-3.84-.21-3.84,0-.35.33-.81.39-.9v-1.1s-.06-.06-.08-.07h-.33c-.06,0-.08.04-.08.02v.09l-.05.03-.15-.03-.05-.02s0-.11-.04-.12l-.38.02v.47h-.54v-.49s-.42,0-.42,0v.11s-.05.02-.05.02l-.15.03-.06-.03v-.07s-.02-.05-.08-.05h-.3c-.05,0-.11.05-.11.07v1.1c.03.06.31.5.31.5h-.46s-.16,0-.16.03v.48h-.81v-.49h-.68s-.07,0-.07,0v.49h-.81s0-.1,0-.1v-1.77c0-.3.27-.94.27-.93v-1.16c0-.16-.16-.2-.15-.21h-.71c-.11,0-.13.07-.13.11v.38h-.25v-.5c0-.07-.06-.08-.09-.09l-.63.04v.55h-.82v-.1l-.03-.49h-.58s-.1.02-.1.09v.5h-.25v-.37s-.02-.11-.14-.11h-.69s-.17.05-.17.21v1.13s.26.67.27.97v1.87h-.81v-.48s-.07-.01-.07-.01l-.67.02v.47h-.81v-.5s-.44,0-.44,0h-.19s.28-.44.32-.5v-1.1s-.06-.06-.08-.07h-.33c-.06,0-.08.04-.08.02v.09l-.05.03-.15-.03-.05-.02s0-.11-.04-.12l-.38.02v.47h-.54v-.49s-.42,0-.42,0v.11s-.05.02-.05.02l-.15.03-.06-.03v-.07s-.02-.05-.08-.05h-.3s-.11.05-.11.07v1.1c.06.09.39.55.39.9h0s-.2,3.84-.21,3.86c0,.03-.2.68-.43,1.11-.03.07-.04.15-.04.17.17.03.19.11.19.15v1.76h3.05v-.52h1.52c0-.18.02-1.31.02-1.31,0,0,0-.01,0-.03h1.23v.35h-.2l.4.68.4-.68h-.2v-.35h1.25v.35h-.2l.4.68.39-.68h-.19v-.35h1.26v.35h-.2l.4.68.4-.68h-.2v-.35h1.34s.01.05.01.05c0,0,.01,1.11.02,1.29h1.52v.52h3.05ZM40.95,48.48h-1.09c.11-.27.3-.63.58-1h.51v1h0ZM40.95,47.09h-.16c.05-.05.11-.1.16-.15v.15h0ZM42.6,48.48h-1.25v-1h1.25v1h0ZM42.6,47.09h-1.25v-.45c.35-.23.76-.4,1.25-.49v.94h0ZM44.26,48.48h-1.26v-1h1.26v1h0ZM44.26,47.09h-1.26v-.97c.49.07.9.23,1.26.44v.53h0ZM44.65,46.83h0c.1.08.2.17.29.26h-.29v-.26h0ZM44.65,48.48h0v-1h.63c.27.36.46.72.57,1h-1.2ZM44.85,53.31h0c-.13-.19-.65,0-.79.08l-.3.04-.18-.17c-.03-.08-.03-.16.02-.23.05-.09.16-.15.28-.16.16-.01.69-.16.69-.39,0-.2-.21-.56-.54-.8-.34-.24-.74-.34-.92-.28-.22.07-.21.61-.17.77.03.12,0,.24-.07.33-.06.06-.13.09-.22.08l-.22-.12-.04-.29c.03-.16.06-.71-.16-.78-.18-.06-.59.02-.92.26-.34.25-.55.6-.55.79,0,.23.53.39.69.4l.26.14.04.24c-.02.08-.07.15-.15.18-.1.04-.22.03-.32-.04-.14-.09-.65-.28-.79-.09-.11.16-.16.57-.03.96.13.4.4.71.58.77.22.08.53-.37.6-.53.05-.12.14-.2.25-.22.08-.02.16,0,.22.06,0,0,.11.22.11.22,0,0-.13.25-.14.25-.1.09-.36.41-.36.62,0,.04,0,.08.03.11.11.16.49.33.9.33h0c.42,0,.8-.16.91-.31.02-.03.03-.07.03-.11,0-.21-.25-.53-.35-.62l-.13-.27.11-.22c.07-.06.15-.08.23-.06.1.02.19.1.24.22.06.16.36.61.59.54.19-.06.47-.37.59-.76.13-.4.09-.81-.02-.96h0ZM43.11,54.16h0c-.34.25-.82.17-1.06-.18-.25-.34-.16-.82.18-1.06.34-.24.82-.16,1.07.18.24.34.16.82-.18,1.06h0ZM34.6,39.44h0c.14-.06.24-.16.29-.27.12.02.28.02.45-.02.2-.04,1.61-.66,2.28-.95,0,0,0,0,0,.01.29.43.74.99,1.12,1.2.56.32.8.22.91.03.11-.19-.06-.52-.5-.74-.27-.14-.61-.44-.86-.74,0,0,0,0,0,0,.36-.18,1.04-.51,1.8-.89-.03-.02-.05-.03-.06-.04-.04-.03-.04-.05-.05-.09-.09-.15-.13-.31-.13-.41,0,0,0-.03,0-.06,0-.04-.03-.18-.03-.18,0,0-.03-.15-.08-.35-.83.38-1.59.72-1.98.9,0,0,0,0,0,0-.07-.39-.1-.83-.03-1.13.11-.49-.04-.82-.26-.86-.22-.04-.45.09-.56.72-.07.43.08,1.12.23,1.63,0,0,0,0,0,0-.65.34-2.03,1.04-2.19,1.17-.13.11-.23.23-.3.34-.12-.03-.26-.02-.39.05-.26.12-.39.37-.3.55.09.19.37.24.62.12h0ZM38.56,32.78h0c-.06-.26-.3-.11-.3-.11-.32-.44-.9-.59-.9-.59-.06-.1-.21-.2-.34-.27-.06-.45-.31-.84-.7-1.01-.59-.26-1.31.03-1.71.66-.04-.05-.09-.09-.16-.13-.19-.09-.41-.02-.49.15-.07.17.02.38.21.46.07.03.14.04.2.04-.2.72.07,1.45.66,1.71.4.18.85.1,1.23-.16.14.05.32.09.43.07,0,0,.5.33,1.04.27,0,0,.04.28.28.15,0,0,.35.46.88.31,0,0,.17.07.45.18.04-.13.11-.31.11-.32.21-.25.43-.47.65-.64-.45-.21-.72-.35-.72-.35-.25-.49-.82-.45-.82-.45h0ZM36.12,32.29h0c-.16-.02-.26-.32-.08-.45,0,0-.34-.21-.39.24,0,0-.25-.22-.47-.06.03.27.36.31.36.31-.3.34.08.45.08.45-.03-.22.25-.34.38-.24.13.1.04.4-.12.55-.18.18-.46.21-.66.12-.37-.16-.47-.73-.23-1.26.24-.54.73-.84,1.1-.67.19.09.34.33.35.56.01.22-.16.48-.33.46h0ZM45.58,34.21h0l.03.09c2.55-1.27,4.78-2.38,4.98-2.48.49-.23.78-.77.78-.77,0,0-.6-.11-1.09.12-.21.1-2.64,1.19-5.35,2.42.23.19.45.38.65.62h0ZM67.2,57.59h0c-.43-.38-1.18-.75-1.61-1.23-.16-.18-.76-.39-1.47-.61-.02,0-.04-.02-.05-.03-.17-.07-.51-.17-.89-.27.2.51,1.04,1.22,1.46,1.52.29.21.21.41.16.52,0,0-.36-.34-.8-.31-.44.02-.88-.13-1.5.23-.62.36-.96.54-1.08.98-.08.29-.13.49-.13.49,0,0-.44-.52-.47-.85,0,0-.93-.6-1.45-.65-.52-.05-1.14.13-1.19.41,0,0-.06-.55.29-.9.15-.16.41-.36.41-.36,0,0-.29-.23-.47-.05,0,0,.05-.54.31-.57.26-.03,1.4-.03,1.81-.03s1.22-.16,1.4-.65c0-.03.02-.06.03-.1-.2-.05-.37-.09-.49-.13-.25-.08-.46-.15-.59-.21-.8-.38-2.25-.43-3.06-.48l-.23-.07v-1.73s-.24-.02-.24-.02c-1.05-.11-2.47.03-3.4.69l-.05-.02h0c-.7-.2-1.48-.33-2.63-.63-.03,0-.32-.1-.51-.16,1.14-1.48,2.01-3.3,2.29-5.52h-.44c-.9,6.9-7.81,9.83-9.83,10.28-2.08-.46-9.28-3.52-9.93-10.74h-.43c.22,2.52,1.2,4.55,2.49,6.16-1.01.15-2.36.45-2.85.56-.19.05-.35.1-.5.16-.02,0-.05.02-.07.02-.82-.86-2.44-1.13-3.64-.95l-.21.03v2.1c-.88.03-1.71.01-2.07.04-.34.03-.91.27-1.45.51.22.12.55.2.84.2,0,0,1.85.03,1.85.03.4.04.59.48.62.89,0,0,.03.28.05.55.12.26.19.53.19.69,0,.08,0,.13,0,.15l-.21.6-.47-.54c-.07-.08-.44-.21-.83-.17-.29.03-.84.32-1.19.53-.12.38-.42.76-.49.85l-.44.51-.3-1.13c-.07-.27-.27-.39-.82-.71l-.1-.06c-.37-.22-.65-.21-.97-.19,0,0-.38,0-.38,0-.23-.02-.47.15-.54.22l-.34.31-.21-.41c-.18-.35-.08-.71.26-.96.18-.13.37-.28.55-.44-.04,0-.09.02-.13.03-.54.11-1.82.91-2.58,1.18-.75.27-1.88.86-1.83,1.23.05.38.87,1.74,1.84,2,.12.03.23.06.33.08v-.81h5.21c2.83-.57,5.91-1.62,6.18-3.01,0,0-.97-.52-2.08-.42v-1.81s0,0,0,0c0-.36,0-1.3.01-1.59.94-.09,2.12.1,2.8.65.01.01.03.02.04.04.08.1.41.5.41.76v5.07s-.06.13-.18.31h3.47s19.11,0,19.11,0v-.02s.08.03.08.03h.15c-.12-.18-.18-.31-.18-.31v-5.07c0-.16.12-.36.23-.53.68-.63,1.94-.84,3.02-.77,0,.2,0,.7,0,1.11h0s0,2.13,0,2.13c-1.11-.1-2.08.42-2.08.42.27,1.39,3.35,2.43,6.18,3.01h5.17v1.21c.14-.08.26-.16.35-.24h0c.66-.34,1.2-1.24,1.33-1.64.16-.51-.38-1.03-.81-1.4h0ZM51.21,39.5h0c.12-.04.26-.17.28-.22.02-.06.03-.24-.02-.36-.31-.76-1.32-.77-1.32-.77-.13-.21-.4-.1-.4-.1-.8-.79-1.78-.98-1.78-.98-.25-.33-.58-.15-.58-.15-.7-.31-1.41-.62-2.12-.94-.03.13-.07.31-.07.31,0,.05-.02.09-.03.13,0,.03,0,.1,0,.1,0,.13-.03.29-.12.44.65.28,1.3.57,1.93.86,0,0,.09.36.5.33,0,0,.79.6,1.91.66,0,0,.1.28.34.23,0,0,.68.74,1.45.46h0ZM40.76,55.17h0c-.13.67.04.92.04.92.25.04.84-.26.84-.26-.35-.17-.16-.63-.16-.63-.45.3-.72-.02-.72-.02h0ZM42.67,51.51h0c.19-.5.6-.41.6-.41-.29-.62-.58-.72-.58-.72-.22.11-.53.71-.53.71.39-.07.5.42.5.42h0ZM39.67,52.55h0c.04.25.51.72.51.72.05-.39.55-.35.55-.35-.42-.34-.2-.69-.2-.69-.68.09-.86.33-.86.33h0ZM45.18,53.36h0c.5-.47.51-.77.51-.77-.18-.18-.83-.28-.83-.28.18.34-.24.61-.24.61.54.03.57.44.57.44h0ZM39.78,34.49h0s-.08.18-.02.25c.06.07.1.09.17.15.06.07.25,1.18.29,1.29.04.11.05.27.05.27,0,0-.02.21.06.29.07.06.19.06.22.09.02.04.02.1.19.06.18-.04.9-.32,1.78-.32.88,0,1.6.27,1.78.32.18.04.17-.02.19-.06.03-.04.15-.03.22-.09.08-.08.05-.29.05-.29,0,0,0-.16.05-.27.04-.11.23-1.22.3-1.29.07-.06.11-.08.17-.15.07-.07.02-.2-.02-.25-.84-1-1.87-1.33-2.56-1.41l-.1-.23.27.12v-.4l-.27.12.12-.27h-.4l.13.27-.27-.12v.4l.27-.13-.1.22c-.69.03-1.73.42-2.56,1.42h0ZM42.64,34.73h0l.2-.39h-.15c.09-.21.22-.51.24-.57.03-.06.1-.11.23-.06.13.05,1.06.34,1.47.99.06.09-.14.65-.37.74s-.54-.02-.54-.13c0-.18.28-.27.41-.11,0,0,.17-.34-.25-.34,0,0,.18-.25.02-.45-.25.06-.26.36-.26.36-.34-.23-.41.12-.41.12.2-.05.35.2.28.34-.03.04-.08.13-.39.1-.09,0-.22-.04-.33-.09l-.14-.28.44.18v-.58l-.44.17h0ZM42.4,34.74h0l-.45-.18v.58l.45-.19-.15.29c-.11.06-.25.08-.34.09-.31.03-.36-.06-.38-.1-.08-.13.07-.38.27-.34,0,0-.06-.35-.4-.12,0,0,0-.4-.26-.46-.16.19.02.54.02.54-.42,0-.25.34-.25.34.13-.16.42-.07.41.11,0,.1-.31.22-.54.13-.23-.09-.43-.65-.37-.74.41-.65,1.34-.94,1.47-.99.13-.05.21,0,.24.06.02.06.15.36.24.57h-.16l.21.4h0Z"/><path class="cls-1" d="M42.52,0C19.04,0,0,19.04,0,42.52s19.04,42.52,42.52,42.52,42.52-19.04,42.52-42.52S66,0,42.52,0h0ZM42.52,76.75h0c-18.91,0-34.23-15.33-34.23-34.23S23.61,8.29,42.52,8.29s34.23,15.33,34.23,34.23-15.33,34.23-34.23,34.23h0Z"/><path class="cls-1" d="M20.18,61.17v.4h.64v.28h-.64v.55h-.32v-1.5h1.04v.28h-.72Z"/><path class="cls-1" d="M21.39,62.31c-.11-.07-.2-.16-.27-.28-.07-.12-.1-.25-.1-.4s.03-.28.1-.4c.06-.12.15-.21.27-.28s.24-.1.39-.1.27.03.39.1c.11.07.2.16.27.28.07.12.1.25.1.4s-.03.28-.1.4c-.07.12-.16.21-.27.28-.11.07-.24.1-.39.1s-.27-.03-.39-.1ZM21.99,62.06c.07-.04.12-.1.15-.17.04-.07.06-.15.06-.25s-.02-.18-.06-.25c-.04-.07-.09-.13-.15-.17-.07-.04-.14-.06-.22-.06s-.15.02-.22.06c-.07.04-.12.1-.15.17-.04.07-.06.15-.06.25s.02.18.06.25c.04.07.09.13.15.17.07.04.14.06.22.06s.15-.02.22-.06Z"/><path class="cls-1" d="M23.64,62.39l-.26-.42h-.29v.42h-.32v-1.5h.6c.12,0,.23.02.32.07.09.04.16.11.21.19.05.08.07.18.07.29s-.02.21-.07.29c-.05.08-.12.14-.21.19l.31.48h-.34ZM23.56,61.24s-.12-.07-.22-.07h-.26v.52h.26c.1,0,.17-.02.22-.07.05-.05.07-.11.07-.19s-.02-.15-.07-.19Z"/><path class="cls-1" d="M25.25,61.17h-.44v-.28h1.2v.28h-.44v1.21h-.32v-1.21Z"/><path class="cls-1" d="M27.44,60.89v1.5h-.32v-.61h-.62v.61h-.32v-1.5h.32v.59h.62v-.59h.32Z"/><path class="cls-1" d="M28.84,62.11v.28h-1.07v-1.5h1.04v.28h-.72v.33h.64v.27h-.64v.35h.75Z"/><path class="cls-1" d="M30.25,61.8l-.18.21v.38h-.32v-1.5h.32v.7l.61-.7h.35l-.57.67.6.83h-.37l-.44-.59Z"/><path class="cls-1" d="M31.2,60.89h.32v1.5h-.32v-1.5Z"/><path class="cls-1" d="M33.11,60.89v1.5h-.26l-.69-.91v.91h-.31v-1.5h.26l.68.91v-.91h.31Z"/><path class="cls-1" d="M34.36,61.62h.29v.61c-.07.06-.16.11-.26.14s-.2.05-.3.05c-.14,0-.27-.03-.39-.1-.11-.07-.2-.16-.27-.28-.07-.12-.1-.25-.1-.4s.03-.28.1-.4c.06-.12.15-.21.27-.28.12-.07.25-.1.39-.1.12,0,.23.02.33.07.1.04.18.11.25.19l-.2.21c-.1-.11-.22-.17-.36-.17-.09,0-.17.02-.23.06-.07.04-.12.1-.16.17-.04.07-.06.16-.06.25s.02.18.06.25c.04.07.09.13.16.17.07.04.14.06.23.06s.17-.02.25-.06v-.44Z"/><path class="cls-1" d="M35.2,62.05s.05.09.05.15c0,.03,0,.06,0,.09,0,.03-.02.07-.04.13l-.11.31h-.19l.09-.34s-.06-.04-.08-.07c-.02-.03-.03-.07-.03-.11,0-.06.02-.11.05-.15.04-.04.08-.06.14-.06s.1.02.14.06Z"/><path class="cls-1" d="M36.52,61.17h-.44v-.28h1.2v.28h-.44v1.21h-.32v-1.21Z"/><path class="cls-1" d="M38.71,60.89v1.5h-.32v-.61h-.63v.61h-.32v-1.5h.32v.59h.63v-.59h.32Z"/><path class="cls-1" d="M40.11,62.11v.28h-1.07v-1.5h1.04v.28h-.72v.33h.64v.27h-.64v.35h.75Z"/><path class="cls-1" d="M41.01,60.89h.32v1.21h.69v.28h-1.01v-1.5Z"/><path class="cls-1" d="M43.12,62.07h-.64l-.12.32h-.33l.61-1.5h.31l.62,1.5h-.33l-.12-.32ZM43.02,61.8l-.22-.57-.22.57h.44Z"/><path class="cls-1" d="M45.73,60.89l-.45,1.5h-.34l-.3-1.01-.31,1.01h-.34l-.45-1.5h.33l.31,1.05.32-1.05h.29l.31,1.06.32-1.06h.3Z"/><path class="cls-1" d="M46.09,62.05s.05.09.05.15c0,.03,0,.06,0,.09,0,.03-.02.07-.04.13l-.11.31h-.19l.09-.34s-.06-.04-.08-.07c-.02-.03-.03-.07-.03-.11,0-.06.02-.11.05-.15.04-.04.08-.06.14-.06s.1.02.14.06Z"/><path class="cls-1" d="M47.93,62.07h-.64l-.12.32h-.33l.61-1.5h.31l.61,1.5h-.33l-.12-.32ZM47.83,61.8l-.22-.57-.22.57h.44Z"/><path class="cls-1" d="M49.8,60.89v1.5h-.26l-.69-.91v.91h-.31v-1.5h.26l.68.91v-.91h.31Z"/><path class="cls-1" d="M50.12,60.89h.63c.15,0,.28.03.4.09.11.06.2.15.27.26.06.11.1.24.1.39s-.03.28-.1.39c-.06.11-.15.2-.27.26-.11.06-.25.09-.4.09h-.63v-1.5ZM50.73,62.1c.14,0,.25-.04.33-.12.08-.08.12-.2.12-.34s-.04-.25-.12-.34c-.08-.08-.19-.12-.33-.12h-.29v.93h.29Z"/><path class="cls-1" d="M52.69,61.17h-.44v-.28h1.2v.28h-.44v1.21h-.32v-1.21Z"/><path class="cls-1" d="M54.88,60.89v1.5h-.32v-.61h-.62v.61h-.32v-1.5h.32v.59h.62v-.59h.32Z"/><path class="cls-1" d="M56.27,62.11v.28h-1.07v-1.5h1.04v.28h-.72v.33h.64v.27h-.64v.35h.75Z"/><path class="cls-1" d="M58.09,60.96c.09.04.16.11.21.19.05.08.07.18.07.29s-.02.21-.07.29c-.05.08-.12.15-.21.19-.09.04-.2.07-.32.07h-.28v.41h-.32v-1.5h.59c.12,0,.23.02.32.07ZM57.98,61.63c.05-.04.07-.11.07-.19s-.02-.15-.07-.19c-.05-.04-.12-.07-.22-.07h-.26v.52h.26c.09,0,.17-.02.22-.07Z"/><path class="cls-1" d="M59.67,62.11v.28h-1.07v-1.5h1.04v.28h-.72v.33h.64v.27h-.64v.35h.75Z"/><path class="cls-1" d="M60.2,62.31c-.12-.07-.21-.16-.27-.28-.07-.12-.1-.25-.1-.4s.03-.28.1-.4c.06-.12.15-.21.27-.28.11-.07.24-.1.39-.1s.27.03.38.1c.11.07.2.16.27.28.07.12.1.25.1.4s-.03.28-.1.4c-.07.12-.16.21-.27.28-.11.07-.24.1-.38.1s-.27-.03-.39-.1ZM60.8,62.06c.07-.04.12-.1.15-.17.04-.07.06-.15.06-.25s-.02-.18-.06-.25c-.04-.07-.09-.13-.15-.17-.07-.04-.14-.06-.22-.06s-.15.02-.22.06c-.07.04-.12.1-.15.17-.04.07-.06.15-.06.25s.02.18.06.25c.04.07.09.13.15.17.07.04.14.06.22.06s.15-.02.22-.06Z"/><path class="cls-1" d="M62.49,60.96c.09.04.16.11.21.19.05.08.07.18.07.29s-.02.21-.07.29c-.05.08-.12.15-.21.19-.09.04-.2.07-.32.07h-.28v.41h-.32v-1.5h.59c.12,0,.23.02.32.07ZM62.37,61.63c.05-.04.07-.11.07-.19s-.02-.15-.07-.19c-.05-.04-.12-.07-.22-.07h-.26v.52h.26c.09,0,.17-.02.22-.07Z"/><path class="cls-1" d="M62.99,60.89h.32v1.21h.69v.28h-1.01v-1.5Z"/><path class="cls-1" d="M65.25,62.11v.28h-1.07v-1.5h1.04v.28h-.72v.33h.64v.27h-.64v.35h.75Z"/></svg>