<?xml version="1.0" encoding="UTF-8"?>
<svg width="141px" height="75px" viewBox="0 0 141 75" version="1.1" xmlns="http://www.w3.org/2000/svg" xmlns:xlink="http://www.w3.org/1999/xlink">
    <!-- Generator: Sketch 52.2 (67145) - http://www.bohemiancoding.com/sketch -->
    <title>Logo</title>
    <desc>Created with Sketch.</desc>
    <g id="Symbols" stroke="none" stroke-width="1" fill="none" fill-rule="evenodd">
        <g id="Component-/-Nav-/-Header-/-L-/-Top-6" transform="translate(0.000000, -11.000000)">
            <g id="Component-/-Brand-/-Logo-full" transform="translate(-2.000000, 8.000000)">
                <g id="NDIS_Logo" transform="translate(2.000000, 3.296512)">
                    <path d="M9.8970684,0.14127907 C9.8970684,0.14127907 0.0938110749,0.14127907 0.0938110749,9.98372093 L0.0938110749,63.1988372 C0.0938110749,63.1988372 0.0938110749,73.8889535 10.7413681,73.8889535 L131.007166,73.8889535 C131.007166,73.8889535 140.810423,73.8889535 140.810423,64.0465116 L140.810423,33.9069767 C140.810423,33.9069767 140.810423,0.14127907 107.179153,0.14127907 L9.8970684,0.14127907 Z" id="Shape" fill="#6A2875" fill-rule="nonzero"></path>
                    <path d="M17.6364821,26.7017442 C21.0136808,26.7017442 21.6234528,26.8430233 21.904886,27.5965116 C22.0925081,28.2087209 22.2332248,29.3389535 22.3739414,30.375 C24.5785016,27.8319767 28.1433225,26.0424419 32.3179153,26.0424419 C36.4925081,26.0424419 39.8228013,27.4081395 41.886645,29.7627907 C44.1381107,32.305814 45.123127,35.6494186 45.123127,40.8767442 L45.123127,62.1156977 C45.123127,62.869186 44.7009772,63.1517442 40.667101,63.1517442 L40.3387622,63.1517442 C35.8827362,63.1517442 35.7420195,62.869186 35.7420195,62.1156977 L35.7420195,43.4668605 C35.7420195,38.7104651 35.4605863,37.2505814 34.381759,36.0261628 C33.4905537,34.9901163 31.7550489,34.425 29.7850163,34.425 C28.190228,34.425 26.4078176,34.7546512 25.1882736,35.5081395 C23.734202,36.402907 23.4058632,37.5331395 23.2651466,39.1813953 C23.12443,40.7825581 23.12443,43.3255814 23.12443,45.9627907 L23.12443,62.1156977 C23.12443,62.869186 22.7022801,63.1517442 18.6684039,63.1517442 L18.3400651,63.1517442 C13.8840391,63.1517442 13.7433225,62.869186 13.7433225,62.1156977 L13.7433225,43.0901163 C13.7433225,37.7215116 13.5557003,31.6936047 13.2742671,27.9732558 C13.2273616,27.0313953 13.4618893,26.7488372 17.4019544,26.7488372 L17.6364821,26.7488372 L17.6364821,26.7017442 Z" id="Shape" fill="#FFFFFF" fill-rule="nonzero"></path>
                    <path d="M71.8123779,37.2976744 C70.076873,35.2255814 68.0130293,34.1424419 65.6208469,34.1424419 C60.6019544,34.1424419 58.209772,38.1453488 58.209772,45.4447674 C58.209772,49.4947674 59.1478827,52.1319767 60.5550489,53.7331395 C61.7745928,55.1930233 63.7915309,55.7110465 65.714658,55.7110465 C67.637785,55.7110465 69.8423453,55.0046512 70.8742671,53.9215116 C71.6247557,53.0738372 71.8123779,51.9906977 71.8123779,50.2011628 L71.8123779,37.2976744 Z M76.7843648,10.6901163 C80.818241,10.6901163 81.2403909,10.9726744 81.2403909,11.7261628 L81.2403909,53.8744186 C81.2403909,55.3813953 81.8501629,55.8052326 83.2104235,55.8052326 C84.0547231,55.8052326 84.1016287,56.1348837 84.1016287,58.630814 L84.1016287,59.3843023 C84.1016287,61.7860465 83.9609121,62.3511628 83.4918567,62.5395349 C82.2723127,63.0104651 80.3960912,63.3872093 78.5667752,63.3872093 C75.5179153,63.3872093 73.5009772,62.0215116 72.5628664,59.9494186 C70.2175896,62.4453488 66.7934853,63.8110465 62.9941368,63.8110465 C53.9882736,63.8110465 48.5003257,56.747093 48.5003257,45.4447674 C48.5003257,33.2476744 54.5980456,25.9953488 63.6039088,25.9953488 C66.8403909,25.9953488 69.5140065,27.0784884 71.7654723,29.1034884 L71.7654723,11.7261628 C71.7654723,10.9726744 71.9061889,10.6901163 76.362215,10.6901163 L76.7843648,10.6901163 Z" id="Shape" fill="#FFFFFF" fill-rule="nonzero"></path>
                    <path d="M101.269055,55.3343023 C102.441694,53.2622093 103.051466,52.65 103.801954,53.2151163 C106.47557,55.0046512 109.712052,56.1819767 112.620195,56.1819767 C116.278827,56.1819767 118.389577,54.8162791 118.389577,52.9325581 C118.389577,47.5639535 100.8,50.8604651 100.8,37.6744186 C100.8,30.422093 106.991531,25.9953488 115.012378,25.9953488 C119.562215,25.9953488 123.455375,27.2197674 126.363518,29.4331395 C127.067101,29.9040698 126.926384,30.469186 125.519218,32.8238372 L124.909446,33.8127907 C123.689902,35.9319767 123.173941,36.3087209 122.423453,35.7906977 C120.218893,34.425 118.108143,33.5773256 115.387622,33.5773256 C113.41759,33.5773256 111.822801,34.0011628 110.931596,34.7546512 C110.321824,35.3197674 109.993485,35.9319767 109.993485,36.7796512 C109.993485,41.9598837 127.583062,39.2755814 127.583062,51.7081395 C127.583062,54.8633721 126.269707,57.9244186 124.065147,60.0436047 C121.532248,62.5395349 117.732899,63.8581395 112.714007,63.8581395 C107.413681,63.8581395 102.770033,62.1156977 99.9087948,59.7139535 C99.3459283,59.2430233 99.4397394,58.630814 100.518567,56.605814 L101.269055,55.3343023 Z" id="Shape" fill="#FFFFFF" fill-rule="nonzero"></path>
                    <path d="M92.7791531,26.7017442 C96.8599349,26.7017442 97.2351792,26.9843023 97.2351792,27.7377907 L97.2351792,62.1156977 C97.2351792,62.869186 96.8130293,63.1517442 92.7791531,63.1517442 L92.4039088,63.1517442 C87.9478827,63.1517442 87.8071661,62.869186 87.8071661,62.1156977 L87.8071661,27.7377907 C87.8071661,26.9843023 87.9478827,26.7017442 92.4039088,26.7017442 L92.7791531,26.7017442 Z" id="Shape" fill="#FFFFFF" fill-rule="nonzero"></path>
                    <path d="M92.4039088,22.8401163 C95.734202,22.8401163 98.4547231,20.1087209 98.4547231,16.7651163 C98.4547231,13.4215116 95.734202,10.6901163 92.4039088,10.6901163 C89.0736156,10.6901163 86.3530945,13.4215116 86.3530945,16.7651163 C86.3530945,20.1087209 89.0736156,22.8401163 92.4039088,22.8401163" id="Shape" fill="#82C341" fill-rule="nonzero"></path>
                </g>
            </g>
        </g>
    </g>
</svg>