<?xml version="1.0" encoding="UTF-8"?><svg id="Layer_1" xmlns="http://www.w3.org/2000/svg" viewBox="0 0 148.91 124.82"><defs><style>.cls-1{fill:#1d988c;}.cls-2{fill:#29378d;}</style></defs><polygon class="cls-1" points="61.43 86.21 70.32 87.11 73.35 95.51 76.69 78.95 61.43 86.21"/><path class="cls-2" d="M148.3,52.64c-.42-1.78-1.03-3.51-1.8-5.16l-.19-.41c-.13-.28-.26-.56-.41-.83l-.67-1.18-1.49-2.3c-.18-.26-.38-.51-.58-.76l-.29-.36-.28-.36c-.19-.24-.38-.48-.6-.73l-1.12-1.23c-.25-.28-.5-.55-.76-.79-2.68-2.64-5.64-4.96-8.85-6.92-3.27-2-6.7-3.71-10.27-5.11-3.18-1.25-6.43-2.31-9.73-3.18-8.5-8.63-19.65-14.15-31.66-15.69-1.99-.26-3.99-.4-6-.42-1.8-.91-3.59-1.73-5.37-2.47-3.56-1.49-7.24-2.65-11-3.49C53.49.41,49.67-.01,45.83,0h-1.16l-1.74.09-1,.1-.47.06-.47.05c-.33,0-.66.07-1,.13l-1.4.27-2.79.68c-.31.08-.62.19-.92.3l-.45.15c-1.83.62-3.6,1.41-5.28,2.36-1.66.96-3.22,2.09-4.65,3.37-2.87,2.59-5.19,5.72-6.83,9.22-.82,1.76-1.49,3.58-2,5.45l-.17.73c-.17.67-.34,1.37-.45,2.07l-.09.48c-.06.31-.12.63-.16.94l-.17,1.42c-.4,3.8-.33,7.64.19,11.43l.15,2.76c-2,1.52-3.89,3.2-5.65,5-2.72,2.79-4.98,6-6.7,9.5l-.31.64c-.07.15-.13.31-.19.46l-.62,1.59c-.07.24-.15.49-.23.73-.23.66-.42,1.32-.57,2,0,.15-.07.3-.11.45-.08.31-.15.62-.2.93l-.23,1.37c0,.31-.07.62-.1.93v.47l-.06.7v2.08c0,.32,0,.64.06,1v.45l.07.67c.02.25.05.49.1.73l.25,1.32c.06.39.15.77.27,1.15l.19.67c.08.29.16.59.26.91l.72,1.92c.06.15.13.3.2.44l.68,1.44c.13.29.28.56.45.83l.24.41c.07.14.15.27.23.41s.3.54.48.8l1.18,1.73,1.3,1.64c.56.66,1.16,1.3,1.75,1.94l.13.14c2.69,2.67,5.68,5.02,8.91,7,3.29,2.03,6.76,3.76,10.35,5.19.74.29,1.48.57,2.24.84-6.86,7.2-12.63,15.3-10.07,18.47.77.82,1.88,1.25,3,1.16,2.78,0,6.62-1.5,9.83-3,6.47-3.27,12.61-7.17,18.34-11.62,3.73.46,7.58.75,11.57.86h2.54c7.28,0,14.54-.62,21.71-1.85l1-.18c1.64-.3,3.33-.61,5-1s3.47-.81,5.15-1.25l.79-.21c3.92-1.1,7.79-2.4,11.58-3.89l.34-.14c-1.55,1.55-3.19,3-4.93,4.34-10.58,8.15-23.92,11.86-37.19,10.33-6.12-.72-12.06-2.58-17.5-5.48-1.93,1.67-3.86,3.24-5.76,4.71.5.28,1,.57,1.51.83,6.55,3.47,13.72,5.6,21.1,6.28,1.46.14,2.92.2,4.38.22.77.35,1.53.68,2.3,1,3.59,1.49,7.31,2.66,11.1,3.5,3.58.78,7.23,1.18,10.89,1.2h.88c.9,0,1.79-.07,2.7-.15l2.18-.25,2.12-.39c.32-.06.63-.15.95-.23l.49-.13.47-.12c.32-.08.63-.16.94-.27l1.59-.54.44-.18,2-.86.84-.43.67-.35c.36-.19.72-.38,1.06-.6l1.2-.76c.22-.13.44-.28.64-.44l.58-.44.37-.27c.27-.2.54-.41.79-.63l1.24-1.13.37-.34.84-.88c.22-.23.45-.47.66-.72l.9-1.1c.21-.25.4-.52.59-.79s.18-.27.28-.4c.43-.57.8-1.19,1.16-1.78.13-.23.27-.45.42-.71l.79-1.5c.07-.15.15-.29.22-.45l.28-.65c1.54-3.58,2.49-7.39,2.82-11.27.21-2.57.21-5.14,0-7.71l.63-.45,2.29-1.81c3.25-2.17,6.25-4.71,8.92-7.56l1-1.06c.22-.24.42-.49.61-.74l.32-.39c.46-.55.88-1.13,1.28-1.7l.46-.63c1.07-1.59,2.01-3.26,2.81-5,1.55-3.41,2.35-7.11,2.37-10.85.01-1.86-.19-3.71-.61-5.52ZM37.03,111.56c-7.24,3.85-10.68,4.16-11.48,3.17-.92-1.15.57-5.16,7.43-12.71,2.55,2.63,5.34,5,8.35,7.08-1.48.92-2.93,1.75-4.3,2.46ZM126.79,90.15c-.09,1.84-.29,3.68-.6,5.5-.06.29-.11.57-.17.86-.11.62-.23,1.23-.39,1.84l-.12.48c-.07.28-.14.56-.22.83l-.39,1.31c-.54,1.71-1.24,3.36-2.07,4.95-.27.55-.59,1.09-.91,1.61l-.38.65-.45.65c-.33.51-.69,1.01-1.08,1.48l-.31.38c-.16.22-.33.43-.52.62l-.89,1c-.18.19-.37.37-.57.55l-.35.33-.47.45-.3.25-.19.15c-2.62,2.2-5.66,3.85-8.93,4.86l-1.26.37c-.25.08-.51.14-.77.18l-.46.1-.48.11c-.25,0-.51.11-.78.15l-1.3.19-2.58.27c-.76,0-1.52.06-2.28.07h-.34c-3.55-.06-7.08-.52-10.53-1.36-1.1-.26-2.19-.57-3.29-.9,2.17-.41,4.32-.96,6.43-1.63,12.18-3.79,22.62-11.78,29.46-22.55l.77-.39,1.86-1.07c.67-.39,1.37-.79,2-1.22l1.36-.87c.4-.25.79-.49,1.16-.77l.36-.25c0,.28,0,.56-.02.84v-.02ZM126.48,87.73l-.91.53c-.41.25-.84.48-1.27.71l-1.31.7c-.65.37-1.35.7-2,1l-.6.29c-3.55,1.71-7.2,3.19-10.93,4.46-3.75,1.27-7.57,2.36-11.35,3.24-4.39,1-8.07,1.64-11.58,2.12-10.02,1.36-20.17,1.57-30.24.62,5-4.3,9-9.26,12.79-13.4-3,2.73-6.14,5.46-9.43,8.11-2.15,1.73-4.3,3.39-6.42,5-4.23-.52-8.43-1.29-12.58-2.29-3.6-.88-7.14-2-10.59-3.34-3.37-1.29-6.62-2.87-9.72-4.7-3-1.75-5.78-3.83-8.3-6.22l-.25-.25c-.51-.53-1-1-1.5-1.58l-.82-1-1.52-2c-.15-.21-.29-.42-.42-.64s-.16-.26-.24-.37l-.24-.39c-.14-.22-.28-.43-.4-.65l-.58-1.1c-1.48-2.89-2.3-6.06-2.42-9.3v-2.44l.13-1.28c.03-.25.07-.5.12-.74,0-.16.06-.31.08-.48.1-.58.23-1.15.39-1.72.06-.24.13-.49.17-.69s.17-.5.25-.75c.19-.58.37-1.14.62-1.71.65-1.63,1.44-3.21,2.37-4.7l.72-1.11c.16-.24.32-.47.49-.7l.3-.42c.35-.51.74-1,1.13-1.5l.53-.67c1.2-1.45,2.49-2.84,3.85-4.14l.35-.33v.16l.11,1c0,.46.11.91.21,1.47l.23,1.41c.11.76.27,1.51.43,2.23l.45,2.08.37,1.41c.07.28.15.56.22.85.13.48.26,1,.41,1.43,0,.36-.11.72-.15,1.08-.78,7.39-.1,14.87,2,22,1.12,3.68,2.6,7.23,4.42,10.61,1.63.86,3.31,1.67,5.06,2.42,2.2.95,4.53,1.82,6.94,2.61l-.51-.59c-8.12-10.27-11.98-23.28-10.78-36.32.66-6.48,2.58-12.77,5.63-18.52,3.03-5.8,7.17-10.94,12.19-15.13,5.06-4.19,10.87-7.39,17.12-9.41,3.4-1.08,6.91-1.79,10.46-2.13-1.45-.56-2.9-1.09-4.34-1.55-2.34-.77-4.71-1.42-7.12-1.93l-.62.15c-3.54.98-6.97,2.31-10.25,3.95-3.29,1.68-6.4,3.69-9.29,6-5.6,4.46-10.29,9.94-13.84,16.15l-.16.1c-.38.23-.75.47-1.11.72l-.83.58c-.53.36-1.06.72-1.59,1.11l-2.31,1.72c-.79.52-1.55,1-2.3,1.6l-.3-1.94v-.1c0-1.79,0-3.65.13-5.45,0-.74.12-1.5.21-2.23l.05-.52c0-.29.08-.57.13-.85s.05-.33.07-.48l.08-.47c0-.29.09-.58.16-.88.34-1.76.8-3.5,1.37-5.21.59-1.67,1.31-3.28,2.16-4.83,1.63-3.04,3.86-5.71,6.55-7.86,1.32-1.05,2.73-1.97,4.21-2.76,1.51-.77,3.09-1.39,4.71-1.87l.46-.14.76-.21,1.27-.27,2.52-.42c.78-.09,1.56-.15,2.35-.21l1.81-.06h1c3.51.08,7.01.55,10.42,1.4,3.48.86,6.89,2.01,10.18,3.44,3.34,1.41,6.59,3.05,9.71,4.89l.85.51c.5.3,1,.6,1.5.91l2.3,1.49,2.28,1.58c.45.31.89.64,1.33,1l.89.66c2.74,2.05,5.53,4.37,8.51,7.08,2.66,2.45,5.3,5.12,7.82,7.92l1.81,2.08c.35.4.68.81,1,1.22s.51.63.77.93l.89,1.08c.2.23.38.47.56.71l2,2.6c2.08,2.83,4.12,5.88,6.22,9.32,1.91,3.22,3.66,6.54,5.23,9.94,1.56,3.4,2.9,6.9,4,10.48l.19.61c-1.21,4.56-3.04,8.94-5.44,13-1.02,1.73-2.13,3.4-3.35,5,1.23-.47,2.46-1,3.74-1.53l.62-.27c.57-.25,1.16-.51,1.73-.79l.4-.74c1.51-3.07,2.75-6.27,3.68-9.56l.14.63c.13.6.27,1.19.38,1.77l.48,2.76c0,1,.05,2,.05,3l-.31.21ZM16.48,42.73c.86-.77,1.75-1.52,2.65-2.27l2.45-1.53,1.46-.83c-2.02,4.06-3.55,8.35-4.54,12.77-.05-.18-.11-.36-.17-.55l-.19-.63c-.21-.68-.42-1.39-.58-2.1l-.35-1.39c-.12-.45-.23-.9-.32-1.37l-.2-1c-.09-.37-.19-.74-.19-1.12l-.02.02ZM143.75,68.13c-.61,1.62-1.35,3.19-2.22,4.69-.93,1.55-1.96,3.04-3.07,4.47-.17.23-.37.46-.56.69l-.3.35-.33.39c-.18.22-.36.44-.57.66l-.37.4c-.51.55-1,1.1-1.57,1.63-1.27,1.32-2.7,2.56-4.09,3.76l-.07.06-2.43,1.56c-.08-.77-.17-1.54-.28-2.31l-.2-2.83c-.06-.62-.14-1.24-.22-1.86l-.12-1c0-.43-.12-.86-.2-1.29l-.27-1.55-.09-.46c.5-2.33.84-4.7,1-7.08.43-7.05-.59-14.1-3-20.74,1.62,6.72,1.96,13.68,1,20.53-.08.55-.19,1.1-.28,1.64l-.09-.31c-.18-.68-.37-1.35-.59-2l-.31-1c-.19-.59-.38-1.19-.59-1.79l-1-2.72c-1.46-3.57-3.1-7.06-4.93-10.46-5.54-10.26-12.67-19.57-21.11-27.61-4.23-4.04-8.8-7.72-13.64-11,5.22.81,10.28,2.44,15,4.82,6.07,3.02,11.51,7.18,16,12.26,4.56,5.19,8.11,11.2,10.44,17.7-1.52-6.35-4.23-12.35-8-17.69.66.23,1.32.47,2,.72,3.33,1.28,6.55,2.82,9.63,4.62,2.99,1.73,5.77,3.79,8.29,6.15.23.2.45.42.66.65l1.07,1.11.1.12c.51.59,1,1.18,1.49,1.78l.75,1,1.34,2c.13.21.25.43.36.65l.22.41c.74,1.41,1.34,2.89,1.8,4.41.42,1.55.68,3.14.78,4.75.22,3.3-.28,6.61-1.46,9.7l.03.02Z"/><polygon class="cls-2" points="89.72 35.94 86.3 46.38 79.02 42.27 79.79 38.25 73.97 37.22 69.86 41.07 66.01 40.73 58.56 47.75 46.15 54.34 49.49 74.45 73.03 68.85 79.19 73.28 82.02 71.42 86.3 79.77 99.56 79.25 105.81 60.51 96.05 49.72 89.72 35.94"/><polygon class="cls-2" points="94.77 89.43 97.17 88.15 97.85 84.79 92.46 84.3 94.77 89.43"/></svg>