<?xml version="1.0" encoding="UTF-8"?><svg id="Layer_1" xmlns="http://www.w3.org/2000/svg" viewBox="0 0 76.4 76.41"><defs><style>.cls-1{fill:#002939;}</style></defs><path class="cls-1" d="M38.27,18.03c-2.98,0-5.53,1.81-6.63,4.4h13.27c-1.09-2.59-3.65-4.4-6.63-4.4M48.47,18.01s-3.56.1-1.42,4.43h5.93s-2.34-4.53-4.51-4.43M55.03,17.64s-.84.02-.86.97c-.03,1.41,1.04,3.83,1.04,3.83h4.52s-3.08-4.78-4.7-4.8M28.07,18.01c-2.17-.1-4.52,4.43-4.52,4.43h5.94c2.14-4.33-1.42-4.43-1.42-4.43M21.51,17.64c-1.62.01-4.7,4.8-4.7,4.8h4.52s1.07-2.42,1.05-3.83c-.02-.94-.87-.97-.87-.97"/><path class="cls-1" d="M10.46,31.67c.13-.56.29-1.12.45-1.67h54.58c.17.55.32,1.1.45,1.67H10.46ZM55.45,47.48l-1.51-1.41-1.53,1.39.17-2.06-2.04-.33,1.72-1.15-1.02-1.8,1.97.62.78-1.92.74,1.93,1.99-.59-1.04,1.78,1.7,1.18-2.05.31.13,2.06ZM49.21,52.78l-.78-.73-.79.72.08-1.06-1.05-.17.89-.6-.53-.93,1.02.32.4-.99.38.99,1.02-.31-.54.92.88.61-1.06.15s.07,1.06.07,1.06ZM46.11,65.18l-1.42-1.33-1.44,1.31.16-1.94-1.93-.31,1.62-1.09-.96-1.69,1.86.58.73-1.81.7,1.82,1.86-.56-.98,1.68,1.6,1.11-1.93.28s.13,1.94.13,1.94ZM42.11,34.35l1.96.63.79-1.91.73,1.94,1.99-.57-1.06,1.78,1.69,1.19-2.05.28.12,2.06-1.5-1.42-1.54,1.38.18-2.06-2.04-.35,1.72-1.14s-1-1.81-1-1.81ZM35.46,50.21l-1.39-1.31-1.41,1.28.15-1.9-1.89-.3,1.58-1.06-.94-1.66,1.82.57.71-1.78.69,1.78,1.83-.55-.96,1.65,1.57,1.09-1.89.27s.13,1.91.13,1.91ZM28.23,61.47l-2.23-2.1-2.27,2.07.24-3.06-3.03-.48,2.54-1.71-1.51-2.67,2.93.91,1.14-2.85,1.11,2.86,2.93-.88-1.55,2.65,2.52,1.76-3.04.45s.2,3.05.2,3.05ZM12.32,26.29h51.76c.26.56.5,1.12.72,1.7H11.6c.22-.58.46-1.14.72-1.7M38.2,9.7c10.68,0,19.97,5.88,24.85,14.57H13.35c4.88-8.69,14.18-14.57,24.86-14.57M38.2,7.1c-17.15,0-31.1,13.95-31.1,31.1s13.95,31.1,31.1,31.1,31.1-13.95,31.1-31.1c0-17.15-13.95-31.1-31.1-31.1"/><path class="cls-1" d="M38.2,70.17c-17.63,0-31.97-14.34-31.97-31.97S20.57,6.24,38.2,6.24s31.97,14.34,31.97,31.96-14.34,31.97-31.97,31.97M38.2,0C17.14,0,0,17.14,0,38.2s17.14,38.21,38.2,38.21,38.2-17.14,38.2-38.21S59.26,0,38.2,0"/></svg>