<svg width="71" height="76" viewBox="0 0 71 76" fill="none" xmlns="http://www.w3.org/2000/svg">
<g clip-path="url(#clip0_3208_8840)">
<path d="M5.26229 73.3417H6.64254L6.60382 73.6207C6.59016 73.7275 6.55372 73.8378 6.4945 73.9491C6.43756 74.0594 6.35556 74.1651 6.25193 74.2619C6.14944 74.3575 6.02417 74.4362 5.88067 74.497C5.73832 74.5554 5.57319 74.5858 5.38984 74.5858C5.19169 74.5858 4.99922 74.5521 4.81701 74.4857C4.63708 74.4238 4.47423 74.3125 4.33074 74.155C4.18611 73.9964 4.06881 73.777 3.9834 73.5026C3.89571 73.2236 3.85129 72.8659 3.85129 72.4373C3.85129 71.9109 3.91848 71.4845 4.05173 71.1673C4.18269 70.8569 4.36149 70.6285 4.58242 70.4902C4.80449 70.3507 5.05844 70.2798 5.33404 70.2798C5.5618 70.2798 5.76223 70.3282 5.93078 70.4238C6.10046 70.5194 6.24282 70.651 6.35215 70.8119C6.46375 70.975 6.53891 71.1561 6.57535 71.3496L6.59244 71.4418H8.24828L8.24259 71.3237C8.22778 71.011 8.14807 70.7073 8.00344 70.4227C7.85881 70.1358 7.65723 69.876 7.40214 69.6487C7.1516 69.4238 6.84867 69.2415 6.50475 69.1099C6.16424 68.9795 5.78046 68.9131 5.36479 68.9131C4.72477 68.9131 4.15422 69.0593 3.66908 69.3484C3.18394 69.6398 2.80244 70.0571 2.53595 70.5891C2.26833 71.119 2.13281 71.7534 2.13281 72.4744C2.13281 73.1853 2.2615 73.8108 2.51546 74.3338C2.77169 74.8614 3.14067 75.2765 3.61442 75.5656C4.08703 75.8535 4.65075 75.9998 5.28963 75.9998C5.66544 75.9998 5.99 75.948 6.25307 75.8468C6.51158 75.7478 6.73593 75.6162 6.92042 75.4576C7.00469 75.3822 7.08327 75.3069 7.15615 75.2315V75.9075H8.31661V72.1955L5.25888 72.1808V73.3417H5.26229Z" fill="#002664"/>
<path d="M14.0594 69.3449C13.581 69.0592 13.0105 68.9141 12.3648 68.9141C11.7168 68.9141 11.144 69.0603 10.66 69.3483C10.176 69.6374 9.79561 70.0524 9.53026 70.5834C9.26605 71.1098 9.13281 71.7454 9.13281 72.4709C9.13281 73.1931 9.26492 73.8241 9.52457 74.3472C9.78877 74.8759 10.168 75.2865 10.6486 75.5699C11.1292 75.8545 11.7065 75.9996 12.3636 75.9996C13.0151 75.9996 13.589 75.8557 14.0673 75.5699C14.549 75.2842 14.9249 74.8714 15.1845 74.3427C15.4419 73.8185 15.5717 73.1886 15.5717 72.4698C15.5717 71.7409 15.4396 71.1042 15.18 70.5789C14.918 70.0479 14.5399 69.6329 14.0594 69.3449ZM13.1597 74.4507C12.9387 74.5924 12.6711 74.6644 12.3648 74.6644C12.0607 74.6644 11.7942 74.5924 11.5722 74.4496C11.3501 74.309 11.1747 74.0784 11.0506 73.7668C10.923 73.4462 10.8581 73.0153 10.8581 72.4878C10.8581 71.9512 10.923 71.5114 11.0517 71.1796C11.1759 70.8567 11.3524 70.6182 11.5744 70.4709C11.7977 70.3235 12.0641 70.2482 12.3659 70.2482C12.6666 70.2482 12.9319 70.3235 13.1551 70.4709C13.3761 70.6194 13.5503 70.8567 13.6722 71.1773C13.7986 71.5069 13.8635 71.9478 13.8635 72.4889C13.8635 73.0153 13.7997 73.4462 13.6756 73.7679C13.5526 74.0784 13.3795 74.309 13.1597 74.4507Z" fill="#002664"/>
<path d="M18.8892 73.8685L17.1992 69.0293H15.6641L18.0374 75.8832H19.7365L22.1303 69.0293H20.5929L18.8892 73.8685Z" fill="#002664"/>
<path d="M24.3764 73.1013H27.2007V71.765H24.3844V70.3837H27.6277L27.6323 69.0293H22.7969V75.8832H27.679V74.5187L24.3764 74.5142V73.1013Z" fill="#002664"/>
<path d="M33.3635 72.6863C33.5514 72.5198 33.7051 72.3061 33.8236 72.0507C33.9386 71.7976 33.9978 71.486 33.9978 71.1227C33.9978 70.7166 33.9124 70.3533 33.7427 70.0417C33.573 69.7245 33.3043 69.4736 32.9421 69.2936C32.5857 69.1182 32.1267 69.0293 31.5778 69.0293H28.6328V75.8809H30.2124V73.3286H31.3751L32.4695 75.8809H34.1276L32.8521 73.0429C33.0366 72.9461 33.2086 72.8258 33.3635 72.6863ZM32.4 71.1553C32.4 71.4264 32.3078 71.6413 32.1187 71.8145C31.9297 71.9855 31.6666 72.0721 31.3352 72.0721H30.2124V70.279H31.4343C31.719 70.279 31.9479 70.3567 32.1324 70.5164C32.3123 70.6727 32.4 70.882 32.4 71.1553Z" fill="#002664"/>
<path d="M39.4484 73.1632L36.5615 69.0293H35.0469V75.8832H36.6264V71.5783L39.6375 75.8832H41.0325V69.0293H39.4484V73.1632Z" fill="#002664"/>
<path d="M45.8658 73.4973L44.4149 69.0293H42.25V75.8832H43.8432V71.468L45.2485 75.8832H46.4784L47.894 71.4433V75.8832H49.4918V69.0293H47.3314L45.8658 73.4973Z" fill="#002664"/>
<path d="M52.2905 73.1013H55.1147V71.765H52.3007V70.3837H55.5418L55.5475 69.0293H50.7109V75.8832H55.5942V74.5187L52.2905 74.5142V73.1013Z" fill="#002664"/>
<path d="M61.0109 73.1632L58.1251 69.0293H56.6094V75.8832H58.1878V71.5783L61.1988 75.8832H62.5939V69.0293H61.0109V73.1632Z" fill="#002664"/>
<path d="M63.2578 70.4478H65.2838V75.8832H66.8736V70.4478H68.8528V69.0293H63.2578V70.4478Z" fill="#002664"/>
<path d="M7.1163 52.0507L17.2404 66.521H21.3584V44.8818H16.7519V58.801L7.06619 44.9302L7.03203 44.8818H2.52344V66.521H7.1163V52.0507Z" fill="#002664"/>
<path d="M40.2372 56.7932C39.8306 56.1431 39.2179 55.5525 38.4162 55.0384C37.6156 54.5244 36.5246 54.1318 35.1774 53.8719L31.4261 53.1081C30.293 52.8663 29.5118 52.5536 29.1041 52.1801C28.7066 51.8157 28.5051 51.3309 28.5051 50.7392C28.5051 50.3623 28.5916 50.0192 28.7636 49.7189C28.9344 49.4174 29.1827 49.1508 29.5004 48.9259C29.8204 48.7009 30.2178 48.5232 30.6813 48.3983C31.1505 48.2712 31.6778 48.2071 32.2484 48.2071C33 48.2071 33.6776 48.3049 34.2629 48.4995C34.8414 48.693 35.3209 49.0102 35.6876 49.4444C36.0543 49.8786 36.2798 50.4692 36.3572 51.1992L36.3675 51.3005H41.0218L41.0195 51.1846C40.999 49.9428 40.6437 48.8033 39.9639 47.7987C39.2828 46.7931 38.2795 45.9855 36.9802 45.396C35.6842 44.8088 34.0671 44.5107 32.1732 44.5107C30.5823 44.5107 29.1246 44.7852 27.8388 45.3274C26.5497 45.8707 25.5145 46.6547 24.764 47.6581C24.0101 48.6671 23.6343 49.8741 23.6457 51.2476C23.6765 52.9237 24.1912 54.2836 25.1751 55.2927C26.1557 56.296 27.4995 56.9642 29.1701 57.2758L32.9533 58.0385C33.6468 58.1746 34.2766 58.3534 34.8244 58.5705C35.3619 58.7831 35.7912 59.0599 36.0998 59.3928C36.4016 59.7179 36.5542 60.1454 36.5542 60.6606C36.5542 61.2342 36.3641 61.7191 35.9894 62.0993C35.6056 62.4885 35.084 62.7821 34.4417 62.9744C33.7869 63.1701 33.0546 63.2691 32.2654 63.2691C31.4956 63.2691 30.7861 63.151 30.1575 62.917C29.5323 62.6864 29.0073 62.349 28.5973 61.9148C28.1885 61.4828 27.9083 60.9418 27.7637 60.3085L27.7432 60.2196H23L23.0125 60.3445C23.1241 61.4423 23.4692 62.4154 24.0375 63.2376C24.6046 64.0543 25.3312 64.7427 26.1967 65.2872C27.0599 65.8282 28.0279 66.241 29.0745 66.5121C30.1188 66.7821 31.1984 66.9193 32.2814 66.9193C34.0545 66.9193 35.6272 66.6426 36.9562 66.0959C38.2909 65.547 39.3466 64.7911 40.096 63.8496C40.851 62.9013 41.2336 61.8203 41.2336 60.6336C41.2336 60.0734 41.1699 59.4502 41.0423 58.782C40.9114 58.1082 40.6403 57.4389 40.2372 56.7932Z" fill="#002664"/>
<path d="M64.9889 44.8818L61.0429 58.7212L57.0525 44.8818H53.7157L49.7697 58.7189L45.8248 44.8818H41.2969L47.7506 66.521H51.3561L55.3761 52.8223L59.3677 66.521H63.0335L69.502 44.8818H64.9889Z" fill="#002664"/>
<path d="M33.5389 39.5123C28.1226 38.8543 22.8613 40.572 13.6038 38.0837C12.6586 37.8295 12.3101 38.8149 12.8214 39.6406C15.3086 43.6586 27.8721 40.5101 33.5639 39.9297C33.8122 39.9038 33.7871 39.5427 33.5389 39.5123Z" fill="#D7153A"/>
<path d="M57.2441 38.0837C47.9866 40.572 42.7253 38.8543 37.309 39.5123C37.0608 39.5427 37.0346 39.9049 37.284 39.9297C42.9769 40.5101 55.5393 43.6586 58.0265 39.6406C58.5378 38.8149 58.1893 37.8295 57.2441 38.0837Z" fill="#D7153A"/>
<path d="M16.4223 32.3355C14.5398 29.6054 13.0013 26.5514 11.8101 23.1914C8.21708 24.2297 4.53983 25.728 0.796529 27.6887C0.312531 27.9417 0.0152978 28.4164 0.000493158 28.9564C-0.0131727 29.4963 0.257867 29.9845 0.728199 30.2624C7.97679 34.5515 15.0637 37.0049 21.826 37.5729C19.8126 36.3581 17.9665 34.5751 16.4223 32.3355Z" fill="#D7153A"/>
<path d="M6.32576 23.2103C7.98388 22.5545 9.6272 21.9921 11.2557 21.5185C10.6726 19.6467 10.1943 17.6861 9.81624 15.6399C7.94402 15.4093 6.00688 15.2597 4.00256 15.1945C3.98548 15.1945 3.96726 15.1934 3.95018 15.1934C3.42518 15.1934 2.95143 15.4543 2.67583 15.8998C2.39113 16.3587 2.3786 16.9155 2.64281 17.388C3.80668 19.4668 5.03547 21.4072 6.32576 23.2103Z" fill="#D7153A"/>
<path d="M24.1364 36.7983C25.2604 37.2888 26.4106 37.5632 27.5255 37.6206C24.7957 35.6881 22.6513 32.4113 21.4157 28.2347C19.8237 22.8578 19.2918 16.9252 19.8168 10.5247C17.669 9.18494 15.3412 7.9307 12.8347 6.76533C12.3507 6.54036 11.7972 6.58423 11.3531 6.88232C10.9101 7.17929 10.6652 7.67086 10.6983 8.19617C11.2814 17.4831 13.7013 25.2729 17.8899 31.3483C19.646 33.8973 21.8063 35.7815 24.1364 36.7983Z" fill="#D7153A"/>
<path d="M29.4757 6.40005C28.1912 4.85897 26.7972 3.33477 25.2928 1.82856C25.0013 1.53609 24.6255 1.38086 24.2372 1.38086C24.0982 1.38086 23.9582 1.40111 23.8192 1.4416C23.2919 1.59571 22.9104 2.01304 22.7954 2.5586C22.5016 3.9602 21.9424 6.81738 21.6953 9.64306C23.6188 10.895 25.3953 12.219 27.0227 13.6116C27.6536 11.2348 28.4736 8.8264 29.4757 6.40005Z" fill="#D7153A"/>
<path d="M70.0462 27.6877C66.3029 25.727 62.6257 24.2287 59.0327 23.1904C57.8415 26.5504 56.3029 29.6045 54.4205 32.3345C52.8762 34.5753 51.0302 36.3571 49.0156 37.5719C55.7779 37.0039 62.8648 34.5505 70.1134 30.2614C70.5838 29.9835 70.8559 29.4953 70.8411 28.9554C70.8286 28.4155 70.5302 27.9419 70.0462 27.6877Z" fill="#D7153A"/>
<path d="M64.5237 23.2105C65.814 21.4073 67.0428 19.4658 68.2067 17.387C68.4709 16.9146 68.4595 16.3589 68.1736 15.8988C67.898 15.4545 67.4243 15.1924 66.8993 15.1924C66.8822 15.1924 66.864 15.1924 66.8469 15.1935C64.8426 15.2588 62.9043 15.4095 61.0332 15.639C60.6563 17.6851 60.1768 19.6458 59.5938 21.5175C61.2223 21.9922 62.8667 22.5558 64.5237 23.2105Z" fill="#D7153A"/>
<path d="M49.4301 28.2357C48.1945 32.4112 46.0489 35.6891 43.3203 37.6216C44.4352 37.5642 45.5866 37.2886 46.7094 36.7982C49.0395 35.7813 51.1998 33.8971 52.9559 31.3493C57.1445 25.2739 59.5644 17.4841 60.1475 8.19715C60.1806 7.67183 59.9357 7.18027 59.4927 6.8833C59.0486 6.58521 58.4951 6.54134 58.0111 6.76631C55.5046 7.93056 53.1768 9.18479 51.029 10.5256C51.554 16.9262 51.021 22.8576 49.4301 28.2357Z" fill="#D7153A"/>
<path d="M49.1476 9.6411C48.9005 6.81655 48.3413 3.95937 48.0475 2.55665C47.9336 2.01109 47.551 1.59376 47.0237 1.43965C46.8848 1.39915 46.7447 1.37891 46.6058 1.37891C46.2174 1.37891 45.8416 1.53414 45.5501 1.82661C44.0457 3.33281 42.6518 4.85702 41.3672 6.39809C42.3693 8.82444 43.1893 11.2328 43.8213 13.6085C45.4487 12.2171 47.2241 10.8931 49.1476 9.6411Z" fill="#D7153A"/>
<path d="M35.4136 23.6763C37.2346 20.1229 40.1432 16.9372 42.3274 14.9248C41.1282 10.0991 39.2822 5.54675 36.7335 0.784037C36.4705 0.292467 35.9762 0 35.4148 0C34.8533 0 34.3602 0.293592 34.096 0.784037C31.5211 5.5625 29.6432 10.3173 28.5078 14.9237C30.7877 17.0103 33.7954 20.4131 35.4136 23.6763Z" fill="#D7153A"/>
<path d="M42.1059 36.2863C43.9941 34.9747 45.8823 32.689 47.0803 29.5089C49.4001 23.3525 49.6404 16.4953 49.3079 11.6426C45.1033 14.4154 38.4298 20.2062 36.1511 26.3975C35.0783 29.311 34.5783 33.2795 35.4051 35.4933C35.7502 36.4191 36.3378 37.121 37.1452 37.4551C38.3683 37.9613 40.2474 37.5788 42.1059 36.2863Z" fill="#D7153A"/>
<path d="M34.473 25.8566C33.9173 24.5743 33.3046 23.365 32.3537 22.0062C29.6638 18.1625 26.0389 14.6956 21.528 11.6416C21.4813 12.3615 20.8231 20.1366 23.1326 27.7385C24.8898 33.5204 27.8918 35.8759 29.5374 36.7859C31.1932 37.7004 32.7078 37.9164 34.4844 37.4799C32.6839 35.0547 32.9083 30.0783 34.473 25.8566Z" fill="#D7153A"/>
</g>
<defs>
<clipPath id="clip0_3208_8840">
<rect width="70.8429" height="76" fill="white"/>
</clipPath>
</defs>
</svg>
